<?xml version="1.0" encoding="UTF-8" standalone="no"?>
<!-- Created with Inkscape (http://www.inkscape.org/) -->

<svg
   version="1.1"
   id="svg1"
   width="171.672"
   height="171.672"
   viewBox="0 0 171.672 171.672"
   sodipodi:docname="sudoku.svg"
   inkscape:version="1.4.2 (ebf0e940, 2025-05-08)"
   xmlns:inkscape="http://www.inkscape.org/namespaces/inkscape"
   xmlns:sodipodi="http://sodipodi.sourceforge.net/DTD/sodipodi-0.dtd"
   xmlns="http://www.w3.org/2000/svg"
   xmlns:svg="http://www.w3.org/2000/svg">
  <defs
     id="defs1" />
  <sodipodi:namedview
     id="namedview1"
     pagecolor="#ffffff"
     bordercolor="#000000"
     borderopacity="0.25"
     inkscape:showpageshadow="2"
     inkscape:pageopacity="0.0"
     inkscape:pagecheckerboard="0"
     inkscape:deskcolor="#d1d1d1"
     inkscape:zoom="4.8464515"
     inkscape:cx="85.835997"
     inkscape:cy="85.732829"
     inkscape:window-width="976"
     inkscape:window-height="1186"
     inkscape:window-x="0"
     inkscape:window-y="30"
     inkscape:window-maximized="0"
     inkscape:current-layer="g1">
    <inkscape:page
       x="0"
       y="0"
       inkscape:label="1"
       id="page1"
       width="171.672"
       height="171.672"
       margin="0"
       bleed="0" />
  </sodipodi:namedview>
  <g
     id="g1"
     inkscape:groupmode="layer"
     inkscape:label="1">
    <path
       id="path1"
       d="M 170.08092,0 H 297.64156 M 170.08092,14.17339 H 297.64156 M 170.08092,28.3468 H 297.64156 M 170.08092,42.5202 H 297.64156 M 170.08092,56.69362 H 297.64156 M 170.08092,70.867 H 297.64156 M 170.08092,85.04042 H 297.64156 M 170.08092,99.21382 H 297.64156 M 170.08092,113.38724 H 297.64156 M 170.08092,127.55566 H 297.64156 M 170.08092,0 V 127.56062 M 184.2543,0 V 127.56062 M 198.42772,0 V 127.56062 M 212.60112,0 V 127.56062 M 226.77454,0 V 127.56062 M 240.94792,0 V 127.56062 M 255.12134,0 V 127.56062 M 269.29474,0 V 127.56062 M 283.46815,0 V 127.56062 M 297.63658,0 v 127.56062"
       style="fill:none;stroke:#01528e;stroke-width:0.3985;stroke-linecap:butt;stroke-linejoin:miter;stroke-miterlimit:10;stroke-dasharray:none;stroke-opacity:1"
       transform="matrix(1.3333333,0,0,-1.3333333,-225.97467,170.87467)" />
    <path
       id="path2"
       d="M 170.08092,0 H 297.64156 M 170.08092,42.5202 H 297.64156 M 170.08092,85.04042 H 297.64156 M 170.08092,127.5457 H 297.64156 M 170.08092,0 V 127.56062 M 212.60112,0 V 127.56062 M 255.12134,0 V 127.56062 M 297.62662,0 v 127.56062"
       style="fill:none;stroke:#01528e;stroke-width:1.19553;stroke-linecap:butt;stroke-linejoin:miter;stroke-miterlimit:10;stroke-dasharray:none;stroke-opacity:1"
       transform="matrix(1.3333333,0,0,-1.3333333,-225.97467,170.87467)" />
    <path
       id="path3"
       d="M 1.2667891,-0.76314062 2.3214766,-1.7943906 c 1.5585937,-1.3710938 2.15625,-1.9101563 2.15625,-2.90625 0,-1.1367188 -0.9023438,-1.9335938 -2.1210938,-1.9335938 -1.125,0 -1.85156249,0.9140625 -1.85156249,1.8046875 0,0.5507813 0.4921875,0.5507813 0.52734379,0.5507813 0.1640625,0 0.515625,-0.1171875 0.515625,-0.5273438 0,-0.2578125 -0.1875,-0.515625 -0.5273438,-0.515625 -0.0820312,0 -0.10546874,0 -0.12890624,0.011719 0.22265624,-0.6445313 0.76171874,-1.0195313 1.33593754,-1.0195313 0.9140625,0 1.3359375,0.8085938 1.3359375,1.6289063 0,0.796875 -0.4921875,1.5820312 -1.0429688,2.203125 L 0.61053906,-0.36470312 C 0.50507031,-0.25923437 0.50507031,-0.23579687 0.50507031,-0.00142187 H 4.1964766 l 0.28125,-1.73437503 H 4.2199141 c -0.046875,0.3046875 -0.1171875,0.73828128 -0.2109375,0.89062503 -0.070312,0.0820313 -0.7265625,0.0820313 -0.9492188,0.0820313 z m 0,0"
       style="fill:#01528e;fill-opacity:1;fill-rule:nonzero;stroke:none"
       aria-label="2"
       transform="matrix(1.3333333,0,0,1.3333333,25.822667,14.525333)" />
    <path
       id="path4"
       d="m 4.4764531,-2.0053281 c 0,-1.1835938 -0.8203125,-2.1796875 -1.8984375,-2.1796875 -0.4804687,0 -0.9023437,0.1640625 -1.265625,0.5039062 v -1.9335937 c 0.1992188,0.058594 0.5273438,0.1289062 0.84375,0.1289062 1.2304688,0 1.9335938,-0.9140625 1.9335938,-1.0429687 0,-0.058594 -0.035156,-0.1054688 -0.1054688,-0.1054688 -0.011719,0 -0.035156,0 -0.082031,0.023437 -0.1992188,0.09375 -0.6796875,0.2929688 -1.3476563,0.2929688 -0.3984375,0 -0.8554687,-0.070312 -1.3242187,-0.28125 -0.082031,-0.023437 -0.1054688,-0.023437 -0.1289063,-0.023437 -0.09375,0 -0.09375,0.082031 -0.09375,0.234375 v 2.953125 c 0,0.1757812 0,0.2578125 0.140625,0.2578125 0.070312,0 0.082031,-0.035156 0.1289063,-0.09375 0.1054687,-0.1523438 0.4804687,-0.6914063 1.2773437,-0.6914063 0.5273438,0 0.7734375,0.4570313 0.8554688,0.6328125 0.1523437,0.375 0.1757812,0.7617188 0.1757812,1.2539063 0,0.3515625 0,0.9492187 -0.234375,1.37109373 -0.2460937,0.38671875 -0.609375,0.64453125 -1.0664062,0.64453125 -0.7265625,0 -1.30078127,-0.52734375 -1.46484377,-1.11328128 0.0234375,0.011719 0.0585938,0.011719 0.1640625,0.011719 0.32812497,0 0.50390627,-0.2460938 0.50390627,-0.4804688 0,-0.2460937 -0.1757813,-0.4921875 -0.50390627,-0.4921875 -0.140625,0 -0.48046875,0.070312 -0.48046875,0.5273438 0,0.85546873 0.67968752,1.82812498 1.79296872,1.82812498 1.1601563,0 2.1796875,-0.9609375 2.1796873,-2.22656268 z m 0,0"
       style="fill:#01528e;fill-opacity:1;fill-rule:nonzero;stroke:none"
       aria-label="5"
       transform="matrix(1.3333333,0,0,1.3333333,63.617333,14.525333)" />
    <path
       id="path5"
       d="m 2.9302344,-6.3764219 c 0,-0.234375 0,-0.2578125 -0.234375,-0.2578125 -0.609375,0.6328125 -1.4882813,0.6328125 -1.80468752,0.6328125 v 0.3164063 c 0.19921872,0 0.78515622,0 1.30078122,-0.2578125 v 5.15624998 c 0,0.3515625 -0.035156,0.48046875 -0.9257812,0.48046875 H 0.94976563 v 0.3046875 C 1.3013281,-0.03657812 2.1567969,-0.03657812 2.5552344,-0.03657812 c 0.3984375,0 1.265625,0 1.6171875,0.03515625 v -0.3046875 H 3.8560156 c -0.9023437,0 -0.9257812,-0.1171875 -0.9257812,-0.48046875 z m 0,0"
       style="fill:#01528e;fill-opacity:1;fill-rule:nonzero;stroke:none"
       aria-label="1"
       transform="matrix(1.3333333,0,0,1.3333333,101.41333,14.525333)" />
    <path
       id="path6"
       d="m 3.6555234,-3.1654844 v 0.3164063 c 0,2.33203123 -1.03125,2.78906248 -1.6171875,2.78906248 -0.1640625,0 -0.703125,-0.0234375 -0.9726562,-0.36328125 0.4335937,0 0.515625,-0.28125 0.515625,-0.45703125 0,-0.30468748 -0.234375,-0.45703128 -0.4570313,-0.45703128 -0.16406246,0 -0.45703121,0.09375 -0.45703121,0.48046878 0,0.66796875 0.53906251,1.078125 1.38281251,1.078125 1.2890625,0 2.4960937,-1.35937498 2.4960937,-3.50390628 0,-2.671875 -1.1367187,-3.3515625 -2.0273437,-3.3515625 -0.5507813,0 -1.03125,0.1757813 -1.4648438,0.6210938 -0.41015621,0.4570312 -0.63281246,0.8671875 -0.63281246,1.6171875 0,1.2421875 0.87890626,2.2265625 1.99218746,2.2265625 0.609375,0 1.0078125,-0.421875 1.2421875,-0.9960938 z m -1.2304687,0.7617188 c -0.1640625,0 -0.6210938,0 -0.9257813,-0.6210938 -0.1875,-0.375 -0.1875,-0.8671875 -0.1875,-1.359375 0,-0.5390625 0,-1.0078125 0.2109375,-1.3710937 0.2695313,-0.5039063 0.6445313,-0.6328125 0.9960938,-0.6328125 0.4570312,0 0.7851562,0.3398437 0.9609375,0.7851562 0.1171875,0.3164063 0.1523437,0.9492188 0.1523437,1.40625 0,0.8320313 -0.3398437,1.7929688 -1.2070312,1.7929688 z m 0,0"
       style="fill:#01528e;fill-opacity:1;fill-rule:nonzero;stroke:none"
       aria-label="9"
       transform="matrix(1.3333333,0,0,1.3333333,139.208,14.525333)" />
    <path
       id="path7"
       d="M 1.6292422,-4.5474687 C 1.1604922,-4.8521562 1.1253359,-5.192 1.1253359,-5.3560625 c 0,-0.609375 0.6445313,-1.03125 1.359375,-1.03125 0.7265625,0 1.359375,0.515625 1.359375,1.2421875 0,0.5625 -0.3867187,1.0429688 -0.984375,1.3945313 z m 1.453125,0.9375 C 3.7972109,-3.97325 4.2893984,-4.488875 4.2893984,-5.145125 c 0,-0.9257812 -0.890625,-1.4882812 -1.7929687,-1.4882812 -0.9960938,0 -1.80468751,0.7382812 -1.80468751,1.6640625 0,0.1757812 0.0117188,0.6210937 0.43359371,1.0898437 0.1054688,0.1289063 0.4804688,0.375 0.7265625,0.5390625 -0.5742187,0.2929688 -1.42968746,0.84375 -1.42968746,1.8398438 0,1.05468745 1.00781246,1.7226562 2.06249996,1.7226562 1.125,0 2.0625,-0.83203125 2.0625,-1.8984375 0,-0.3515625 -0.1054687,-0.8085937 -0.4804687,-1.21875 -0.1875,-0.2109375 -0.3515625,-0.3164062 -0.984375,-0.7148437 z m -0.9960938,0.421875 1.21875,0.7734375 c 0.28125,0.1875 0.75,0.4921875 0.75,1.1015625 0,0.7382812 -0.75,1.2539062 -1.5585937,1.2539062 -0.8671875,0 -1.58203126,-0.62109375 -1.58203126,-1.4414062 0,-0.5859375 0.31640626,-1.21875 1.17187496,-1.6875 z m 0,0"
       style="fill:#01528e;fill-opacity:1;fill-rule:nonzero;stroke:none"
       aria-label="8"
       transform="matrix(1.3333333,0,0,1.3333333,6.9253333,33.422667)" />
    <path
       id="path8"
       d="m 1.2655156,-0.7623125 1.0546875,-1.03125 c 1.5585938,-1.3710937 2.15625,-1.9101562 2.15625,-2.90625 0,-1.1367187 -0.9023437,-1.9335937 -2.1210937,-1.9335937 -1.125,0 -1.85156252,0.9140625 -1.85156252,1.8046875 0,0.5507812 0.4921875,0.5507812 0.52734372,0.5507812 0.1640625,0 0.515625,-0.1171875 0.515625,-0.5273437 0,-0.2578125 -0.1875,-0.515625 -0.5273437,-0.515625 -0.0820313,0 -0.10546877,0 -0.12890627,0.011719 0.22265627,-0.6445312 0.76171877,-1.0195312 1.33593747,-1.0195312 0.9140625,0 1.3359375,0.8085937 1.3359375,1.6289062 0,0.796875 -0.4921875,1.5820313 -1.0429687,2.203125 L 0.60926563,-0.363875 C 0.50379688,-0.25840625 0.50379688,-0.23496875 0.50379688,-5.9375e-4 H 4.1952031 l 0.28125,-1.73437495 H 4.2186406 c -0.046875,0.3046875 -0.1171875,0.7382812 -0.2109375,0.89062495 -0.070312,0.0820313 -0.7265625,0.0820313 -0.9492187,0.0820313 z m 0,0"
       style="fill:#01528e;fill-opacity:1;fill-rule:nonzero;stroke:none"
       aria-label="2"
       transform="matrix(1.3333333,0,0,1.3333333,63.617333,33.422667)" />
    <path
       id="path9"
       d="m 2.8950781,-3.5045 c 0.8085938,-0.2695312 1.3945313,-0.9726562 1.3945313,-1.7578125 0,-0.8203125 -0.8789063,-1.3710937 -1.8398438,-1.3710937 -1.0078125,0 -1.75781247,0.5976562 -1.75781247,1.3476562 0,0.3398438 0.2109375,0.5273438 0.50390627,0.5273438 0.3046875,0 0.5039062,-0.2226563 0.5039062,-0.515625 0,-0.4921875 -0.46875,-0.4921875 -0.609375,-0.4921875 0.3046875,-0.4921875 0.9609375,-0.6210938 1.3242188,-0.6210938 0.4101562,0 0.9492187,0.2226563 0.9492187,1.1132813 0,0.1289062 -0.011719,0.703125 -0.2695312,1.1367187 -0.3046875,0.4804688 -0.6445313,0.515625 -0.890625,0.515625 -0.082031,0.011719 -0.3164063,0.035156 -0.3867188,0.035156 -0.082031,0.011719 -0.1523437,0.023437 -0.1523437,0.1171875 0,0.1171875 0.070312,0.1171875 0.234375,0.1171875 h 0.4453125 c 0.8085937,0 1.1835937,0.6679687 1.1835937,1.6523437 0,1.34765625 -0.6914062,1.640625 -1.125,1.640625 -0.4335937,0 -1.171875,-0.17578125 -1.52343747,-0.76171875 0.35156247,0.0585938 0.65624997,-0.1640625 0.65624997,-0.53906245 0,-0.3632813 -0.2695312,-0.5625 -0.56249997,-0.5625 -0.234375,0 -0.55078125,0.140625 -0.55078125,0.5742187 0,0.9140625 0.92578122,1.5703125 2.00390622,1.5703125 1.21875,0 2.1210938,-0.9140625 2.1210938,-1.921875 0,-0.8203125 -0.6210938,-1.59375 -1.6523438,-1.8046872 z m 0,0"
       style="fill:#01528e;fill-opacity:1;fill-rule:nonzero;stroke:none"
       aria-label="3"
       transform="matrix(1.3333333,0,0,1.3333333,101.41333,33.422667)" />
    <path
       id="path10"
       d="M 1.3126016,-3.270125 V -3.5045 c 0,-2.5195312 1.2421875,-2.8828125 1.7460937,-2.8828125 0.234375,0 0.65625,0.058594 0.8789063,0.3984375 -0.1523438,0 -0.5507813,0 -0.5507813,0.4453125 0,0.3164063 0.234375,0.4570313 0.4570313,0.4570313 0.1640625,0 0.4570312,-0.082031 0.4570312,-0.46875 0,-0.5976563 -0.4335937,-1.078125 -1.265625,-1.078125 -1.2773437,0 -2.61328124,1.2890625 -2.61328124,3.4804687 0,2.66015625 1.14843754,3.375 2.07421874,3.375 1.1132813,0 2.0507813,-0.9375 2.0507813,-2.25 0,-1.265625 -0.8789063,-2.2265625 -1.9921875,-2.2265625 -0.6679688,0 -1.0429688,0.5039063 -1.2421875,0.984375 z m 1.1835937,3.2109375 c -0.6210937,0 -0.9257812,-0.59765625 -0.984375,-0.75 -0.1757812,-0.46875 -0.1757812,-1.265625 -0.1757812,-1.4414062 0,-0.7734375 0.3164062,-1.7695313 1.21875,-1.7695313 0.1523437,0 0.609375,0 0.9257812,0.609375 0.1757813,0.375 0.1757813,0.8789063 0.1757813,1.3710938 0,0.4804687 0,0.9726562 -0.1640625,1.33593745 C 3.1876016,-0.1060625 2.7305703,-0.0591875 2.4961953,-0.0591875 Z m 0,0"
       style="fill:#01528e;fill-opacity:1;fill-rule:nonzero;stroke:none"
       aria-label="6"
       transform="matrix(1.3333333,0,0,1.3333333,158.10533,33.422667)" />
    <path
       id="path11"
       d="m 2.8956953,-3.5036719 c 0.8085938,-0.2695312 1.3945313,-0.9726562 1.3945313,-1.7578125 0,-0.8203125 -0.8789063,-1.3710937 -1.8398438,-1.3710937 -1.0078125,0 -1.75781249,0.5976562 -1.75781249,1.3476562 0,0.3398438 0.2109375,0.5273438 0.50390629,0.5273438 0.3046875,0 0.5039062,-0.2226563 0.5039062,-0.515625 0,-0.4921875 -0.46875,-0.4921875 -0.609375,-0.4921875 0.3046875,-0.4921875 0.9609375,-0.6210938 1.3242188,-0.6210938 0.4101562,0 0.9492187,0.2226563 0.9492187,1.1132813 0,0.1289062 -0.011719,0.703125 -0.2695312,1.1367187 -0.3046875,0.4804688 -0.6445313,0.515625 -0.890625,0.515625 -0.082031,0.011719 -0.3164063,0.035156 -0.3867188,0.035156 -0.082031,0.011719 -0.1523437,0.023437 -0.1523437,0.1171875 0,0.1171875 0.070312,0.1171875 0.234375,0.1171875 h 0.4453125 c 0.8085937,0 1.1835937,0.6679687 1.1835937,1.6523437 0,1.34765628 -0.6914062,1.64062503 -1.125,1.64062503 -0.4335937,0 -1.171875,-0.17578125 -1.52343749,-0.76171875 0.35156249,0.0585938 0.65624999,-0.1640625 0.65624999,-0.53906248 0,-0.3632813 -0.2695312,-0.5625 -0.56249999,-0.5625 -0.234375,0 -0.55078125,0.140625 -0.55078125,0.5742187 0,0.91406253 0.92578124,1.57031253 2.00390624,1.57031253 1.21875,0 2.1210938,-0.9140625 2.1210938,-1.92187503 0,-0.8203125 -0.6210938,-1.59375 -1.6523438,-1.8046872 z m 0,0"
       style="fill:#01528e;fill-opacity:1;fill-rule:nonzero;stroke:none"
       aria-label="3"
       transform="matrix(1.3333333,0,0,1.3333333,25.822667,52.32)" />
    <path
       id="path12"
       d="m 1.3122187,-3.2692969 v -0.234375 c 0,-2.5195312 1.2421875,-2.8828125 1.7460938,-2.8828125 0.234375,0 0.65625,0.058594 0.8789062,0.3984375 -0.1523437,0 -0.5507812,0 -0.5507812,0.4453125 0,0.3164063 0.234375,0.4570313 0.4570312,0.4570313 0.1640625,0 0.4570313,-0.082031 0.4570313,-0.46875 0,-0.5976563 -0.4335938,-1.078125 -1.265625,-1.078125 -1.2773438,0 -2.61328125,1.2890625 -2.61328125,3.4804687 0,2.66015628 1.14843745,3.37500003 2.07421875,3.37500003 1.1132812,0 2.0507812,-0.9375 2.0507812,-2.25000003 0,-1.265625 -0.8789062,-2.2265625 -1.9921875,-2.2265625 -0.6679687,0 -1.0429687,0.5039063 -1.2421875,0.984375 z m 1.1835938,3.21093753 c -0.6210938,0 -0.9257813,-0.59765625 -0.984375,-0.75 C 1.3356562,-1.2771094 1.3356562,-2.0739844 1.3356562,-2.2497656 c 0,-0.7734375 0.3164063,-1.7695313 1.21875,-1.7695313 0.1523438,0 0.609375,0 0.9257813,0.609375 0.1757812,0.375 0.1757812,0.8789063 0.1757812,1.3710938 0,0.4804687 0,0.9726562 -0.1640625,1.33593748 -0.3046875,0.59765625 -0.7617187,0.64453125 -0.9960937,0.64453125 z m 0,0"
       style="fill:#01528e;fill-opacity:1;fill-rule:nonzero;stroke:none"
       aria-label="6"
       transform="matrix(1.3333333,0,0,1.3333333,82.516,52.32)" />
    <path
       id="path13"
       d="m 4.7453672,-6.0700781 c 0.082031,-0.1171875 0.082031,-0.140625 0.082031,-0.3398438 H 2.4133359 c -1.21875,0 -1.2421875,-0.1289062 -1.2773437,-0.328125 H 0.88989844 l -0.328125,2.0507813 h 0.24609375 c 0.0234375,-0.1523438 0.1171875,-0.7851563 0.24609371,-0.9023438 0.070312,-0.058594 0.84375,-0.058594 0.9726563,-0.058594 h 2.0625 c -0.1054688,0.1640625 -0.890625,1.2421875 -1.1132813,1.5703125 -0.890625,1.3476562 -1.21875,2.7304687 -1.21875,3.74999998 0,0.09375 0,0.55078125 0.4570313,0.55078125 0.4570312,0 0.4570312,-0.45703125 0.4570312,-0.55078125 v -0.50390625 c 0,-0.55078123 0.023437,-1.10156253 0.1054688,-1.64062503 0.046875,-0.2226562 0.1757812,-1.078125 0.6210937,-1.6992187 z m 0,0"
       style="fill:#01528e;fill-opacity:1;fill-rule:nonzero;stroke:none"
       aria-label="7"
       transform="matrix(1.3333333,0,0,1.3333333,139.208,52.32)" />
    <path
       id="path14"
       d="m 2.92875,-6.3739375 c 0,-0.234375 0,-0.2578125 -0.234375,-0.2578125 C 2.085,-5.9989375 1.2060938,-5.9989375 0.8896875,-5.9989375 v 0.3164063 c 0.1992188,0 0.7851563,0 1.3007813,-0.2578125 v 5.15624995 c 0,0.3515625 -0.035156,0.48046875 -0.9257813,0.48046875 H 0.94828125 V 0.0010625 C 1.2998438,-0.03409375 2.1553125,-0.03409375 2.55375,-0.03409375 c 0.3984375,0 1.265625,0 1.6171875,0.03515625 V -0.303625 H 3.8545313 c -0.9023438,0 -0.9257813,-0.1171875 -0.9257813,-0.48046875 z m 0,0"
       style="fill:#01528e;fill-opacity:1;fill-rule:nonzero;stroke:none"
       aria-label="1"
       transform="matrix(1.3333333,0,0,1.3333333,44.72,71.217333)" />
    <path
       id="path15"
       d="m 1.313875,-3.2684687 v -0.234375 c 0,-2.5195313 1.2421875,-2.8828125 1.7460938,-2.8828125 0.234375,0 0.65625,0.058594 0.8789062,0.3984375 -0.1523437,0 -0.5507812,0 -0.5507812,0.4453125 0,0.3164062 0.234375,0.4570312 0.4570312,0.4570312 0.1640625,0 0.4570313,-0.082031 0.4570313,-0.46875 0,-0.5976562 -0.4335938,-1.078125 -1.265625,-1.078125 -1.2773438,0 -2.6132813,1.2890625 -2.6132813,3.4804688 0,2.6601562 1.1484375,3.37499995 2.0742188,3.37499995 1.1132812,0 2.0507812,-0.9375 2.0507812,-2.24999995 0,-1.265625 -0.8789062,-2.2265625 -1.9921875,-2.2265625 -0.6679687,0 -1.0429687,0.5039062 -1.2421875,0.984375 z m 1.1835938,3.21093745 c -0.6210938,0 -0.9257813,-0.59765625 -0.984375,-0.75 C 1.3373125,-1.2762812 1.3373125,-2.0731562 1.3373125,-2.2489375 c 0,-0.7734375 0.3164063,-1.7695312 1.21875,-1.7695312 0.1523438,0 0.609375,0 0.9257813,0.609375 0.1757812,0.375 0.1757812,0.8789062 0.1757812,1.3710937 0,0.4804688 0,0.9726563 -0.1640625,1.3359375 -0.3046875,0.59765625 -0.7617187,0.64453125 -0.9960937,0.64453125 z m 0,0"
       style="fill:#01528e;fill-opacity:1;fill-rule:nonzero;stroke:none"
       aria-label="6"
       transform="matrix(1.3333333,0,0,1.3333333,120.31067,71.217333)" />
    <path
       id="path16"
       d="m 4.4768984,-2.0030156 c 0,-1.1835938 -0.8203125,-2.1796875 -1.8984375,-2.1796875 -0.4804687,0 -0.9023437,0.1640625 -1.265625,0.5039062 v -1.9335937 c 0.1992188,0.058594 0.5273438,0.1289062 0.84375,0.1289062 1.2304688,0 1.9335938,-0.9140625 1.9335938,-1.0429687 0,-0.058594 -0.035156,-0.1054688 -0.1054688,-0.1054688 -0.011719,0 -0.035156,0 -0.082031,0.023437 -0.1992188,0.09375 -0.6796875,0.2929688 -1.3476563,0.2929688 -0.3984375,0 -0.8554687,-0.070312 -1.3242187,-0.28125 -0.082031,-0.023437 -0.1054688,-0.023437 -0.1289063,-0.023437 -0.09375,0 -0.09375,0.082031 -0.09375,0.234375 v 2.953125 c 0,0.1757812 0,0.2578125 0.140625,0.2578125 0.070312,0 0.082031,-0.035156 0.1289063,-0.09375 0.1054687,-0.1523438 0.4804687,-0.6914063 1.2773437,-0.6914063 0.5273438,0 0.7734375,0.4570313 0.8554688,0.6328125 0.1523437,0.375 0.1757812,0.7617188 0.1757812,1.2539063 0,0.3515625 0,0.9492187 -0.234375,1.37109373 -0.2460937,0.38671875 -0.609375,0.64453125 -1.0664062,0.64453125 -0.7265625,0 -1.30078126,-0.52734375 -1.46484376,-1.11328128 0.0234375,0.011719 0.0585938,0.011719 0.1640625,0.011719 0.32812496,0 0.50390626,-0.2460938 0.50390626,-0.4804688 0,-0.2460937 -0.1757813,-0.4921875 -0.50390626,-0.4921875 -0.140625,0 -0.48046875,0.070312 -0.48046875,0.5273438 0,0.85546873 0.67968751,1.82812498 1.79296871,1.82812498 1.1601563,0 2.1796875,-0.9609375 2.1796873,-2.22656268 z m 0,0"
       style="fill:#01528e;fill-opacity:1;fill-rule:nonzero;stroke:none"
       aria-label="5"
       transform="matrix(1.3333333,0,0,1.3333333,6.9253333,90.116)" />
    <path
       id="path17"
       d="m 2.9308516,-1.6397344 v 0.86718753 c 0,0.3515625 -0.023437,0.46875 -0.7617188,0.46875 H 1.9581953 V 8.90625e-4 c 0.4101563,-0.035156245 0.9375,-0.035156245 1.3476563,-0.035156245 0.421875,0 0.9492187,0 1.359375,0.035156245 V -0.30379687 H 4.4542891 c -0.7382813,0 -0.7617188,-0.1171875 -0.7617188,-0.46875 V -1.6397344 H 4.6886641 V -1.9561406 H 3.6925703 v -4.5234375 c 0,-0.1992188 0,-0.2578125 -0.1523437,-0.2578125 -0.09375,0 -0.1171875,0 -0.1992188,0.1171875 l -3.05859374,4.6640625 v 0.3164062 z m 0.058594,-0.3164062 H 0.56366406 L 2.9894453,-5.6709844 Z m 0,0"
       style="fill:#01528e;fill-opacity:1;fill-rule:nonzero;stroke:none"
       aria-label="4"
       transform="matrix(1.3333333,0,0,1.3333333,25.822667,90.116)" />
    <path
       id="path18"
       d="m 2.9289609,-6.3741094 c 0,-0.234375 0,-0.2578125 -0.234375,-0.2578125 -0.609375,0.6328125 -1.4882812,0.6328125 -1.80468746,0.6328125 v 0.3164063 c 0.19921876,0 0.78515626,0 1.30078126,-0.2578125 v 5.15624998 c 0,0.3515625 -0.035156,0.48046875 -0.9257813,0.48046875 H 0.94849219 V 8.90625e-4 C 1.3000547,-0.03426562 2.1555234,-0.03426562 2.5539609,-0.03426562 c 0.3984375,0 1.265625,0 1.6171875,0.035156245 V -0.30379687 H 3.8547422 c -0.9023438,0 -0.9257813,-0.1171875 -0.9257813,-0.48046875 z m 0,0"
       style="fill:#01528e;fill-opacity:1;fill-rule:nonzero;stroke:none"
       aria-label="1"
       transform="matrix(1.3333333,0,0,1.3333333,139.208,90.116)" />
    <path
       id="path19"
       d="m 3.6563516,-3.1631719 v 0.3164063 c 0,2.33203123 -1.03125,2.78906248 -1.6171875,2.78906248 -0.1640625,0 -0.703125,-0.0234375 -0.9726563,-0.36328125 0.4335938,0 0.515625,-0.28125 0.515625,-0.45703125 0,-0.30468748 -0.234375,-0.45703128 -0.4570312,-0.45703128 -0.16406254,0 -0.45703129,0.09375 -0.45703129,0.48046878 0,0.66796875 0.53906249,1.078125 1.38281249,1.078125 1.2890625,0 2.4960938,-1.35937498 2.4960938,-3.50390628 0,-2.671875 -1.1367188,-3.3515625 -2.0273438,-3.3515625 -0.5507812,0 -1.03125,0.1757813 -1.4648437,0.6210938 -0.41015629,0.4570312 -0.63281254,0.8671875 -0.63281254,1.6171875 0,1.2421875 0.87890624,2.2265625 1.99218754,2.2265625 0.609375,0 1.0078125,-0.421875 1.2421875,-0.9960938 z m -1.2304688,0.7617188 c -0.1640625,0 -0.6210937,0 -0.9257812,-0.6210938 -0.1875,-0.375 -0.1875,-0.8671875 -0.1875,-1.359375 0,-0.5390625 0,-1.0078125 0.2109375,-1.3710937 0.2695312,-0.5039063 0.6445312,-0.6328125 0.9960937,-0.6328125 0.4570313,0 0.7851563,0.3398437 0.9609375,0.7851562 0.1171875,0.3164063 0.1523438,0.9492188 0.1523438,1.40625 0,0.8320313 -0.3398438,1.7929688 -1.2070313,1.7929688 z m 0,0"
       style="fill:#01528e;fill-opacity:1;fill-rule:nonzero;stroke:none"
       aria-label="9"
       transform="matrix(1.3333333,0,0,1.3333333,158.10533,90.116)" />
    <path
       id="path20"
       d="M 1.2646875,-0.76292969 2.319375,-1.7941797 c 1.5585938,-1.3710937 2.15625,-1.9101562 2.15625,-2.90625 0,-1.1367187 -0.9023437,-1.9335937 -2.1210937,-1.9335937 -1.125,0 -1.85156255,0.9140625 -1.85156255,1.8046875 0,0.5507812 0.4921875,0.5507812 0.52734375,0.5507812 0.1640625,0 0.515625,-0.1171875 0.515625,-0.5273437 0,-0.2578125 -0.1875,-0.515625 -0.5273437,-0.515625 -0.0820313,0 -0.1054688,0 -0.1289063,0.011719 0.2226563,-0.6445312 0.7617188,-1.0195312 1.3359375,-1.0195312 0.9140625,0 1.3359375,0.8085937 1.3359375,1.6289062 0,0.796875 -0.4921875,1.5820313 -1.0429687,2.203125 L 0.6084375,-0.36449219 C 0.50296875,-0.25902344 0.50296875,-0.23558594 0.50296875,-0.00121094 H 4.194375 L 4.475625,-1.7355859 H 4.2178125 c -0.046875,0.3046875 -0.1171875,0.73828121 -0.2109375,0.89062496 -0.070312,0.0820313 -0.7265625,0.0820313 -0.9492187,0.0820313 z m 0,0"
       style="fill:#01528e;fill-opacity:1;fill-rule:nonzero;stroke:none"
       aria-label="2"
       transform="matrix(1.3333333,0,0,1.3333333,44.72,109.01333)" />
    <path
       id="path21"
       d="M 4.7474688,-6.0715234 C 4.8295,-6.1887109 4.8295,-6.2121484 4.8295,-6.4113672 H 2.4154375 c -1.21875,0 -1.2421875,-0.1289062 -1.2773437,-0.328125 H 0.892 l -0.328125,2.0507813 h 0.24609375 c 0.0234375,-0.1523438 0.1171875,-0.7851563 0.24609375,-0.9023438 0.070312,-0.058594 0.84375,-0.058594 0.9726563,-0.058594 h 2.0625 c -0.1054688,0.1640625 -0.890625,1.2421875 -1.1132813,1.5703125 -0.890625,1.3476562 -1.21875,2.7304687 -1.21875,3.74999996 0,0.09375 0,0.55078125 0.4570313,0.55078125 0.4570312,0 0.4570312,-0.45703125 0.4570312,-0.55078125 v -0.50390625 c 0,-0.55078121 0.023437,-1.10156251 0.1054688,-1.64062501 0.046875,-0.2226562 0.1757812,-1.078125 0.6210937,-1.6992187 z m 0,0"
       style="fill:#01528e;fill-opacity:1;fill-rule:nonzero;stroke:none"
       aria-label="7"
       transform="matrix(1.3333333,0,0,1.3333333,120.31067,109.01333)" />
    <path
       id="path22"
       d="m 3.6574141,-3.1644453 v 0.3164062 c 0,2.33203129 -1.03125,2.78906254 -1.6171875,2.78906254 -0.1640625,0 -0.703125,-0.0234375 -0.9726563,-0.36328125 0.4335938,0 0.515625,-0.28125 0.515625,-0.45703125 0,-0.30468754 -0.234375,-0.45703124 -0.4570312,-0.45703124 -0.16406254,0 -0.45703129,0.09375 -0.45703129,0.48046874 0,0.66796875 0.53906249,1.078125 1.38281249,1.078125 1.2890625,0 2.4960938,-1.35937504 2.4960938,-3.50390624 0,-2.671875 -1.1367188,-3.3515625 -2.0273438,-3.3515625 -0.5507812,0 -1.03125,0.1757812 -1.4648437,0.6210937 -0.41015629,0.4570313 -0.63281254,0.8671875 -0.63281254,1.6171875 0,1.2421875 0.87890624,2.2265625 1.99218754,2.2265625 0.609375,0 1.0078125,-0.421875 1.2421875,-0.9960937 z m -1.2304688,0.7617187 c -0.1640625,0 -0.6210937,0 -0.9257812,-0.6210937 -0.1875,-0.375 -0.1875,-0.8671875 -0.1875,-1.359375 0,-0.5390625 0,-1.0078125 0.2109375,-1.3710938 0.2695312,-0.5039062 0.6445312,-0.6328125 0.9960937,-0.6328125 0.4570313,0 0.7851563,0.3398438 0.9609375,0.7851563 0.1171875,0.3164062 0.1523438,0.9492187 0.1523438,1.40625 0,0.8320312 -0.3398438,1.7929687 -1.2070313,1.7929687 z m 0,0"
       style="fill:#01528e;fill-opacity:1;fill-rule:nonzero;stroke:none"
       aria-label="9"
       transform="matrix(1.3333333,0,0,1.3333333,25.822667,127.91067)" />
    <path
       id="path23"
       d="m 2.89425,-3.5042891 c 0.8085937,-0.2695312 1.3945312,-0.9726562 1.3945312,-1.7578125 0,-0.8203125 -0.8789062,-1.3710937 -1.8398437,-1.3710937 -1.0078125,0 -1.7578125,0.5976562 -1.7578125,1.3476562 0,0.3398438 0.2109375,0.5273438 0.5039062,0.5273438 0.3046875,0 0.5039063,-0.2226563 0.5039063,-0.515625 0,-0.4921875 -0.46875,-0.4921875 -0.609375,-0.4921875 C 1.39425,-6.2581953 2.0505,-6.3871016 2.4137812,-6.3871016 c 0.4101563,0 0.9492188,0.2226563 0.9492188,1.1132813 0,0.1289062 -0.011719,0.703125 -0.2695313,1.1367187 -0.3046875,0.4804688 -0.6445312,0.515625 -0.890625,0.515625 -0.082031,0.011719 -0.3164062,0.035156 -0.3867187,0.035156 -0.082031,0.011719 -0.1523438,0.023437 -0.1523438,0.1171875 0,0.1171875 0.070312,0.1171875 0.234375,0.1171875 h 0.4453125 c 0.8085938,0 1.1835938,0.6679687 1.1835938,1.6523437 0,1.34765629 -0.6914063,1.64062504 -1.125,1.64062504 -0.4335938,0 -1.171875,-0.17578125 -1.5234375,-0.76171875 0.3515625,0.0585938 0.65625,-0.1640625 0.65625,-0.53906249 0,-0.3632813 -0.2695313,-0.5625 -0.5625,-0.5625 -0.234375,0 -0.55078125,0.140625 -0.55078125,0.5742187 0,0.91406254 0.92578125,1.57031254 2.00390625,1.57031254 1.21875,0 2.1210937,-0.9140625 2.1210937,-1.92187504 0,-0.8203125 -0.6210937,-1.59375 -1.6523437,-1.8046872 z m 0,0"
       style="fill:#01528e;fill-opacity:1;fill-rule:nonzero;stroke:none"
       aria-label="3"
       transform="matrix(1.3333333,0,0,1.3333333,82.516,127.91067)" />
    <path
       id="path24"
       d="m 1.6281797,-4.5472578 c -0.46875,-0.3046875 -0.5039063,-0.6445313 -0.5039063,-0.8085938 0,-0.609375 0.6445313,-1.03125 1.359375,-1.03125 0.7265625,0 1.359375,0.515625 1.359375,1.2421875 0,0.5625 -0.3867187,1.0429688 -0.984375,1.3945313 z m 1.453125,0.9375 c 0.7148437,-0.3632813 1.2070312,-0.8789063 1.2070312,-1.5351563 0,-0.9257812 -0.890625,-1.4882812 -1.7929687,-1.4882812 -0.9960938,0 -1.80468751,0.7382812 -1.80468751,1.6640625 0,0.1757812 0.0117188,0.6210937 0.43359371,1.0898437 0.1054688,0.1289063 0.4804688,0.375 0.7265625,0.5390625 -0.5742187,0.2929688 -1.42968746,0.84375 -1.42968746,1.8398438 0,1.05468749 1.00781246,1.72265624 2.06249996,1.72265624 1.125,0 2.0625,-0.83203125 2.0625,-1.89843754 0,-0.3515625 -0.1054687,-0.8085937 -0.4804687,-1.21875 -0.1875,-0.2109375 -0.3515625,-0.3164062 -0.984375,-0.7148437 z m -0.9960938,0.421875 1.21875,0.7734375 c 0.28125,0.1875 0.75,0.4921875 0.75,1.1015625 0,0.73828124 -0.75,1.25390624 -1.5585937,1.25390624 -0.8671875,0 -1.58203126,-0.62109375 -1.58203126,-1.44140624 0,-0.5859375 0.31640626,-1.21875 1.17187496,-1.6875 z m 0,0"
       style="fill:#01528e;fill-opacity:1;fill-rule:nonzero;stroke:none"
       aria-label="8"
       transform="matrix(1.3333333,0,0,1.3333333,139.208,127.91067)" />
    <path
       id="path25"
       d="M 1.2659609,-0.76127344 2.3206484,-1.7925234 c 1.5585938,-1.3710938 2.15625,-1.9101563 2.15625,-2.90625 0,-1.1367188 -0.9023437,-1.9335938 -2.1210937,-1.9335938 -1.125,0 -1.85156251,0.9140625 -1.85156251,1.8046875 0,0.5507813 0.4921875,0.5507813 0.52734371,0.5507813 0.1640625,0 0.515625,-0.1171875 0.515625,-0.5273438 0,-0.2578125 -0.1875,-0.515625 -0.5273437,-0.515625 -0.0820313,0 -0.10546876,0 -0.12890626,0.011719 0.22265626,-0.6445313 0.76171876,-1.0195313 1.33593746,-1.0195313 0.9140625,0 1.3359375,0.8085938 1.3359375,1.6289063 0,0.796875 -0.4921875,1.5820312 -1.0429687,2.203125 L 0.60971094,-0.36283594 C 0.50424219,-0.25736719 0.50424219,-0.23392969 0.50424219,4.453125e-4 H 4.1956484 L 4.4768984,-1.7339297 H 4.2190859 c -0.046875,0.3046875 -0.1171875,0.73828126 -0.2109375,0.89062501 -0.070312,0.0820313 -0.7265625,0.0820313 -0.9492187,0.0820313 z m 0,0"
       style="fill:#01528e;fill-opacity:1;fill-rule:nonzero;stroke:none"
       aria-label="2"
       transform="matrix(1.3333333,0,0,1.3333333,6.9253333,146.808)" />
    <path
       id="path26"
       d="m 1.6287969,-4.5464297 c -0.46875,-0.3046875 -0.5039063,-0.6445312 -0.5039063,-0.8085937 0,-0.609375 0.6445313,-1.03125 1.359375,-1.03125 0.7265625,0 1.359375,0.515625 1.359375,1.2421875 0,0.5625 -0.3867187,1.0429687 -0.984375,1.3945312 z m 1.453125,0.9375 c 0.7148437,-0.3632812 1.2070312,-0.8789062 1.2070312,-1.5351562 0,-0.9257813 -0.890625,-1.4882813 -1.7929687,-1.4882813 -0.9960938,0 -1.80468752,0.7382813 -1.80468752,1.6640625 0,0.1757813 0.0117188,0.6210938 0.43359372,1.0898438 0.1054688,0.1289062 0.4804688,0.375 0.7265625,0.5390625 -0.5742187,0.2929687 -1.42968747,0.84375 -1.42968747,1.8398437 0,1.05468751 1.00781247,1.72265626 2.06249997,1.72265626 1.125,0 2.0625,-0.83203125 2.0625,-1.89843746 0,-0.3515625 -0.1054687,-0.8085938 -0.4804687,-1.21875 -0.1875,-0.2109375 -0.3515625,-0.3164063 -0.984375,-0.7148438 z m -0.9960938,0.421875 1.21875,0.7734375 c 0.28125,0.1875 0.75,0.4921875 0.75,1.1015625 0,0.73828126 -0.75,1.25390626 -1.5585937,1.25390626 -0.8671875,0 -1.58203127,-0.62109375 -1.58203127,-1.44140626 0,-0.5859375 0.31640627,-1.21875 1.17187497,-1.6875 z m 0,0"
       style="fill:#01528e;fill-opacity:1;fill-rule:nonzero;stroke:none"
       aria-label="8"
       transform="matrix(1.3333333,0,0,1.3333333,63.617333,146.808)" />
    <path
       id="path27"
       d="m 2.9302344,-1.6401797 v 0.86718751 c 0,0.3515625 -0.023437,0.46875 -0.7617188,0.46875 H 1.9575781 V 4.453125e-4 C 2.3677344,-0.03471094 2.8950781,-0.03471094 3.3052344,-0.03471094 c 0.421875,0 0.9492187,0 1.359375,0.0351562525 V -0.30424219 H 4.4536719 c -0.7382813,0 -0.7617188,-0.1171875 -0.7617188,-0.46875 V -1.6401797 H 4.6880469 V -1.9565859 H 3.6919531 v -4.5234375 c 0,-0.1992188 0,-0.2578125 -0.1523437,-0.2578125 -0.09375,0 -0.1171875,0 -0.1992188,0.1171875 l -3.05859372,4.6640625 v 0.3164062 z m 0.058594,-0.3164062 H 0.56304688 L 2.9888281,-5.6714297 Z m 0,0"
       style="fill:#01528e;fill-opacity:1;fill-rule:nonzero;stroke:none"
       aria-label="4"
       transform="matrix(1.3333333,0,0,1.3333333,101.41333,146.808)" />
    <path
       id="path28"
       d="m 4.7461953,-6.0698672 c 0.082031,-0.1171875 0.082031,-0.140625 0.082031,-0.3398437 H 2.4141641 c -1.21875,0 -1.2421875,-0.1289063 -1.2773438,-0.328125 H 0.89072656 l -0.328125,2.0507812 h 0.24609375 c 0.0234375,-0.1523437 0.1171875,-0.7851562 0.24609379,-0.9023437 0.070312,-0.058594 0.84375,-0.058594 0.9726562,-0.058594 h 2.0625 c -0.1054687,0.1640625 -0.890625,1.2421875 -1.1132812,1.5703125 -0.890625,1.3476563 -1.21875,2.7304688 -1.21875,3.75000001 0,0.09375 0,0.55078125 0.4570312,0.55078125 0.4570313,0 0.4570313,-0.45703125 0.4570313,-0.55078125 v -0.50390625 c 0,-0.55078126 0.023437,-1.10156246 0.1054687,-1.64062496 0.046875,-0.2226563 0.1757813,-1.078125 0.6210938,-1.6992188 z m 0,0"
       style="fill:#01528e;fill-opacity:1;fill-rule:nonzero;stroke:none"
       aria-label="7"
       transform="matrix(1.3333333,0,0,1.3333333,158.10533,146.808)" />
    <path
       id="path29"
       d="m 2.9308516,-6.3747266 c 0,-0.234375 0,-0.2578125 -0.234375,-0.2578125 -0.609375,0.6328125 -1.4882813,0.6328125 -1.80468754,0.6328125 v 0.3164063 c 0.19921874,0 0.78515624,0 1.30078124,-0.2578125 v 5.15624999 c 0,0.3515625 -0.035156,0.48046875 -0.9257812,0.48046875 H 0.95038281 V 2.734375e-4 C 1.3019453,-0.03488281 2.1574141,-0.03488281 2.5558516,-0.03488281 c 0.3984375,0 1.265625,0 1.6171875,0.0351562475 V -0.30441406 H 3.8566328 c -0.9023437,0 -0.9257812,-0.1171875 -0.9257812,-0.48046875 z m 0,0"
       style="fill:#01528e;fill-opacity:1;fill-rule:nonzero;stroke:none"
       aria-label="1"
       transform="matrix(1.3333333,0,0,1.3333333,25.822667,165.70667)" />
    <path
       id="path30"
       d="m 3.6561406,-3.1637891 v 0.3164063 c 0,2.33203124 -1.03125,2.78906249 -1.6171875,2.78906249 -0.1640625,0 -0.703125,-0.0234375 -0.9726562,-0.36328125 0.4335937,0 0.515625,-0.28125 0.515625,-0.45703125 0,-0.30468749 -0.234375,-0.45703129 -0.4570313,-0.45703129 -0.16406247,0 -0.45703122,0.09375 -0.45703122,0.48046879 0,0.66796875 0.53906252,1.078125 1.38281252,1.078125 1.2890625,0 2.4960937,-1.35937499 2.4960937,-3.50390629 0,-2.671875 -1.1367187,-3.3515625 -2.0273437,-3.3515625 -0.5507813,0 -1.03125,0.1757813 -1.4648438,0.6210938 -0.41015622,0.4570312 -0.63281247,0.8671875 -0.63281247,1.6171875 0,1.2421875 0.87890627,2.2265625 1.99218747,2.2265625 0.609375,0 1.0078125,-0.421875 1.2421875,-0.9960938 z m -1.2304687,0.7617188 c -0.1640625,0 -0.6210938,0 -0.9257813,-0.6210938 -0.1875,-0.375 -0.1875,-0.8671875 -0.1875,-1.359375 0,-0.5390625 0,-1.0078125 0.2109375,-1.3710937 0.2695313,-0.5039063 0.6445313,-0.6328125 0.9960938,-0.6328125 0.4570312,0 0.7851562,0.3398437 0.9609375,0.7851562 0.1171875,0.3164063 0.1523437,0.9492188 0.1523437,1.40625 0,0.8320313 -0.3398437,1.7929688 -1.2070312,1.7929688 z m 0,0"
       style="fill:#01528e;fill-opacity:1;fill-rule:nonzero;stroke:none"
       aria-label="9"
       transform="matrix(1.3333333,0,0,1.3333333,63.617333,165.70667)" />
    <path
       id="path31"
       d="m 4.7466406,-6.0700391 c 0.082031,-0.1171875 0.082031,-0.140625 0.082031,-0.3398437 H 2.4146094 c -1.21875,0 -1.2421875,-0.1289063 -1.2773438,-0.328125 H 0.89117188 l -0.328125,2.0507812 h 0.24609375 c 0.0234375,-0.1523437 0.1171875,-0.7851562 0.24609377,-0.9023437 0.070312,-0.058594 0.84375,-0.058594 0.9726562,-0.058594 h 2.0625 c -0.1054687,0.1640625 -0.890625,1.2421875 -1.1132812,1.5703125 -0.890625,1.3476563 -1.21875,2.7304688 -1.21875,3.75000004 0,0.09375 0,0.55078125 0.4570312,0.55078125 0.4570313,0 0.4570313,-0.45703125 0.4570313,-0.55078125 v -0.50390625 c 0,-0.55078129 0.023437,-1.10156249 0.1054687,-1.64062499 0.046875,-0.2226563 0.1757813,-1.078125 0.6210938,-1.6992188 z m 0,0"
       style="fill:#01528e;fill-opacity:1;fill-rule:nonzero;stroke:none"
       aria-label="7"
       transform="matrix(1.3333333,0,0,1.3333333,101.41333,165.70667)" />
    <path
       id="path32"
       d="m 1.3117734,-3.2692578 v -0.234375 c 0,-2.5195313 1.2421875,-2.8828125 1.7460938,-2.8828125 0.234375,0 0.65625,0.058594 0.8789062,0.3984375 -0.1523437,0 -0.5507812,0 -0.5507812,0.4453125 0,0.3164062 0.234375,0.4570312 0.4570312,0.4570312 0.1640625,0 0.4570313,-0.082031 0.4570313,-0.46875 0,-0.5976562 -0.4335938,-1.078125 -1.265625,-1.078125 -1.2773438,0 -2.61328126,1.2890625 -2.61328126,3.4804688 0,2.66015624 1.14843746,3.37499999 2.07421876,3.37499999 1.1132812,0 2.0507812,-0.9375 2.0507812,-2.24999999 0,-1.265625 -0.8789062,-2.2265625 -1.9921875,-2.2265625 -0.6679687,0 -1.0429687,0.5039062 -1.2421875,0.984375 z m 1.1835938,3.21093749 c -0.6210938,0 -0.9257813,-0.59765625 -0.984375,-0.75 C 1.3352109,-1.2770703 1.3352109,-2.0739453 1.3352109,-2.2497266 c 0,-0.7734375 0.3164063,-1.7695312 1.21875,-1.7695312 0.1523438,0 0.609375,0 0.9257813,0.609375 0.1757812,0.375 0.1757812,0.8789062 0.1757812,1.3710937 0,0.4804688 0,0.9726563 -0.1640625,1.33593754 -0.3046875,0.59765625 -0.7617187,0.64453125 -0.9960937,0.64453125 z m 0,0"
       style="fill:#01528e;fill-opacity:1;fill-rule:nonzero;stroke:none"
       aria-label="6"
       transform="matrix(1.3333333,0,0,1.3333333,139.208,165.70667)" />
  </g>
</svg>
