<?xml version="1.0" encoding="UTF-8" standalone="no"?>
<!-- Created with Inkscape (http://www.inkscape.org/) -->

<svg
   version="1.1"
   id="svg1"
   width="241.88933"
   height="241.88933"
   viewBox="0 0 241.88933 241.88933"
   sodipodi:docname="kktex2.svg"
   inkscape:version="1.4.2 (ebf0e940, 2025-05-08)"
   xmlns:inkscape="http://www.inkscape.org/namespaces/inkscape"
   xmlns:sodipodi="http://sodipodi.sourceforge.net/DTD/sodipodi-0.dtd"
   xmlns="http://www.w3.org/2000/svg"
   xmlns:svg="http://www.w3.org/2000/svg">
  <defs
     id="defs1">
    <clipPath
       clipPathUnits="userSpaceOnUse"
       id="clipPath2">
      <path
         d="M -42.52022,-42.52022 V 127.56067 H 127.56067 V -42.52022 Z"
         id="path2" />
    </clipPath>
    <clipPath
       clipPathUnits="userSpaceOnUse"
       id="clipPath4">
      <path
         d="M -42.52022,-42.52022 V 127.56067 H 127.56067 V -42.52022 Z"
         id="path4" />
    </clipPath>
    <clipPath
       clipPathUnits="userSpaceOnUse"
       id="clipPath6">
      <path
         d="M -42.52022,-42.52022 V 127.56067 H 127.56067 V -42.52022 Z"
         id="path6" />
    </clipPath>
    <clipPath
       clipPathUnits="userSpaceOnUse"
       id="clipPath8">
      <path
         d="M -42.52022,-42.52022 V 127.56067 H 127.56067 V -42.52022 Z"
         id="path8" />
    </clipPath>
    <clipPath
       clipPathUnits="userSpaceOnUse"
       id="clipPath10">
      <path
         d="M -42.52022,-42.52022 V 127.56067 H 127.56067 V -42.52022 Z"
         id="path10" />
    </clipPath>
    <clipPath
       clipPathUnits="userSpaceOnUse"
       id="clipPath12">
      <path
         d="M -42.52022,-42.52022 V 127.56067 H 127.56067 V -42.52022 Z"
         transform="translate(-127.10241)"
         id="path12" />
    </clipPath>
    <clipPath
       clipPathUnits="userSpaceOnUse"
       id="clipPath14">
      <path
         d="M -42.52022,-42.52022 V 127.56067 H 127.56067 V -42.52022 Z"
         id="path14" />
    </clipPath>
    <clipPath
       clipPathUnits="userSpaceOnUse"
       id="clipPath19">
      <path
         d="M -42.52022,-42.52022 V 127.56067 H 127.56067 V -42.52022 Z"
         transform="matrix(1,0,0,-1,51.223001,-10.649)"
         id="path19" />
    </clipPath>
    <clipPath
       clipPathUnits="userSpaceOnUse"
       id="clipPath21">
      <path
         d="M -42.52022,-42.52022 V 127.56067 H 127.56067 V -42.52022 Z"
         id="path21" />
    </clipPath>
    <clipPath
       clipPathUnits="userSpaceOnUse"
       id="clipPath25">
      <path
         d="M -42.52022,-42.52022 V 127.56067 H 127.56067 V -42.52022 Z"
         transform="matrix(1,0,0,-1,-37.109003,-10.649)"
         id="path25" />
    </clipPath>
    <clipPath
       clipPathUnits="userSpaceOnUse"
       id="clipPath27">
      <path
         d="M -42.52022,-42.52022 V 127.56067 H 127.56067 V -42.52022 Z"
         id="path27" />
    </clipPath>
    <clipPath
       clipPathUnits="userSpaceOnUse"
       id="clipPath29">
      <path
         d="M -42.52022,-42.52022 V 127.56067 H 127.56067 V -42.52022 Z"
         transform="matrix(1,0,0,-1,-82.922005,-10.649)"
         id="path29" />
    </clipPath>
    <clipPath
       clipPathUnits="userSpaceOnUse"
       id="clipPath31">
      <path
         d="M -42.52022,-42.52022 V 127.56067 H 127.56067 V -42.52022 Z"
         id="path31" />
    </clipPath>
    <clipPath
       clipPathUnits="userSpaceOnUse"
       id="clipPath33">
      <path
         d="M -42.52022,-42.52022 V 127.56067 H 127.56067 V -42.52022 Z"
         transform="rotate(-90,-63.5512,63.551202)"
         id="path33" />
    </clipPath>
    <clipPath
       clipPathUnits="userSpaceOnUse"
       id="clipPath35">
      <path
         d="M -42.52022,-42.52022 V 127.56067 H 127.56067 V -42.52022 Z"
         id="path35" />
    </clipPath>
    <clipPath
       clipPathUnits="userSpaceOnUse"
       id="clipPath40">
      <path
         d="M -42.52022,-42.52022 V 127.56067 H 127.56067 V -42.52022 Z"
         transform="matrix(1,0,0,-1,22.920001,-44.672999)"
         id="path40" />
    </clipPath>
    <clipPath
       clipPathUnits="userSpaceOnUse"
       id="clipPath42">
      <path
         d="M -42.52022,-42.52022 V 127.56067 H 127.56067 V -42.52022 Z"
         id="path42" />
    </clipPath>
    <clipPath
       clipPathUnits="userSpaceOnUse"
       id="clipPath46">
      <path
         d="M -42.52022,-42.52022 V 127.56067 H 127.56067 V -42.52022 Z"
         transform="matrix(1,0,0,-1,16.333,39.952001)"
         id="path46" />
    </clipPath>
    <clipPath
       clipPathUnits="userSpaceOnUse"
       id="clipPath48">
      <path
         d="M -42.52022,-42.52022 V 127.56067 H 127.56067 V -42.52022 Z"
         id="path48" />
    </clipPath>
    <clipPath
       clipPathUnits="userSpaceOnUse"
       id="clipPath50">
      <path
         d="M -42.52022,-42.52022 V 127.56067 H 127.56067 V -42.52022 Z"
         transform="matrix(1,0,0,-1,9.7470002,82.471002)"
         id="path50" />
    </clipPath>
    <clipPath
       clipPathUnits="userSpaceOnUse"
       id="clipPath52">
      <path
         d="M -42.52022,-42.52022 V 127.56067 H 127.56067 V -42.52022 Z"
         transform="matrix(1,0,0,-1,-3.5199998,-12.530998)"
         id="path52" />
    </clipPath>
    <clipPath
       clipPathUnits="userSpaceOnUse"
       id="clipPath54">
      <path
         d="M -42.52022,-42.52022 V 127.56067 H 127.56067 V -42.52022 Z"
         id="path54" />
    </clipPath>
    <clipPath
       clipPathUnits="userSpaceOnUse"
       id="clipPath56">
      <path
         d="M -42.52022,-42.52022 V 127.56067 H 127.56067 V -42.52022 Z"
         id="path56" />
    </clipPath>
    <clipPath
       clipPathUnits="userSpaceOnUse"
       id="clipPath58">
      <path
         d="M -42.52022,-42.52022 V 127.56067 H 127.56067 V -42.52022 Z"
         id="path58" />
    </clipPath>
    <clipPath
       clipPathUnits="userSpaceOnUse"
       id="clipPath60">
      <path
         d="M -42.52022,-42.52022 V 127.56067 H 127.56067 V -42.52022 Z"
         id="path60" />
    </clipPath>
    <clipPath
       clipPathUnits="userSpaceOnUse"
       id="clipPath62">
      <path
         d="M -42.52022,-42.52022 V 127.56067 H 127.56067 V -42.52022 Z"
         id="path62" />
    </clipPath>
    <clipPath
       clipPathUnits="userSpaceOnUse"
       id="clipPath64">
      <path
         d="M -42.52022,-42.52022 V 127.56067 H 127.56067 V -42.52022 Z"
         id="path64" />
    </clipPath>
    <clipPath
       clipPathUnits="userSpaceOnUse"
       id="clipPath66">
      <path
         d="M -42.52022,-42.52022 V 127.56067 H 127.56067 V -42.52022 Z"
         id="path66" />
    </clipPath>
    <clipPath
       clipPathUnits="userSpaceOnUse"
       id="clipPath68">
      <path
         d="M -42.52022,-42.52022 V 127.56067 H 127.56067 V -42.52022 Z"
         transform="matrix(1,0,0,-1,-5.2209999,90.260002)"
         id="path68" />
    </clipPath>
    <clipPath
       clipPathUnits="userSpaceOnUse"
       id="clipPath70">
      <path
         d="M -42.52022,-42.52022 V 127.56067 H 127.56067 V -42.52022 Z"
         transform="matrix(1,0,0,-1,-29.879003,31.171998)"
         id="path70" />
    </clipPath>
    <clipPath
       clipPathUnits="userSpaceOnUse"
       id="clipPath72">
      <path
         d="M -42.52022,-42.52022 V 127.56067 H 127.56067 V -42.52022 Z"
         transform="matrix(1,0,0,-1,-90.260005,5.2210001)"
         id="path72" />
    </clipPath>
    <clipPath
       clipPathUnits="userSpaceOnUse"
       id="clipPath74">
      <path
         d="M -42.52022,-42.52022 V 127.56067 H 127.56067 V -42.52022 Z"
         transform="matrix(1,0,0,-1,-47.741004,63.898002)"
         id="path74" />
    </clipPath>
  </defs>
  <sodipodi:namedview
     id="namedview1"
     pagecolor="#ffffff"
     bordercolor="#000000"
     borderopacity="0.25"
     inkscape:showpageshadow="2"
     inkscape:pageopacity="0.0"
     inkscape:pagecheckerboard="0"
     inkscape:deskcolor="#d1d1d1"
     inkscape:zoom="0.10748717"
     inkscape:cx="120.94466"
     inkscape:cy="120.94466"
     inkscape:window-width="896"
     inkscape:window-height="245"
     inkscape:window-x="0"
     inkscape:window-y="30"
     inkscape:window-maximized="0"
     inkscape:current-layer="g1">
    <inkscape:page
       x="0"
       y="0"
       inkscape:label="1"
       id="page1"
       width="241.88933"
       height="241.88933"
       margin="0"
       bleed="0" />
  </sodipodi:namedview>
  <g
     id="g1"
     inkscape:groupmode="layer"
     inkscape:label="1">
    <path
       id="path1"
       d="M 85.04045,0 0,85.04045 l 0.16997,-0.07397 0.16998,-0.08434 0.17,-0.08564 0.16998,-0.08436 0.16998,-0.08564 0.17,-0.08434 0.16999,-0.08565 0.16998,-0.09343 0.17,-0.07655 0.16998,-0.09341 0.17,-0.07659 0.16998,-0.09341 0.16998,-0.08565 0.17,-0.08434 0.16997,-0.07655 0.16998,-0.09343 0.17,-0.08566 0.16998,-0.08565 0.16999,-0.09341 0.16999,-0.08435 0.16999,-0.08564 0.17,-0.08434 0.16998,-0.09342 0.16998,-0.08566 0.17,-0.08565 0.16998,-0.08434 0.16999,-0.09343 0.16999,-0.08563 0.16999,-0.08435 0.16998,-0.08563 0.16998,-0.09345 0.16999,-0.08564 0.16999,-0.08434 0.16999,-0.09343 0.16998,-0.08563 0.17,-0.08435 0.16998,-0.09343 0.16998,-0.08565 0.17,-0.09343 0.16998,-0.08564 0.17,-0.08434 0.16999,-0.09343 0.16998,-0.08563 0.17,-0.08435 0.16996,-0.09343 0.16999,-0.09473 0.17,-0.08435 0.16998,-0.08565 0.17,-0.09341 0.16998,-0.08435 0.16998,-0.09473 0.17,-0.08434 0.16998,-0.09342 0.16998,-0.09345 0.17,-0.08563 0.16999,-0.09343 0.16998,-0.09343 0.17,-0.08565 0.16998,-0.09341 0.16998,-0.08435 0.16999,-0.09342 0.16998,-0.09344 0.17,-0.08565 0.16998,-0.09343 0.16998,-0.09341 0.17,-0.09344 0.16998,-0.08564 0.17,-0.09343 0.16999,-0.09342 0.16998,-0.09342 0.16999,-0.08565 0.16999,-0.09344 0.16998,-0.09342 0.16999,-0.09343 0.16998,-0.09343 0.16998,-0.09343 0.17,-0.08565 0.16998,-0.09341 0.17,-0.09343 0.16998,-0.09343 0.16999,-0.09343 0.16999,-0.09343 0.16999,-0.09343 0.16998,-0.09473 0.17,-0.09343 0.16998,-0.08435 0.17,-0.10251 0.16999,-0.08433 0.16996,-0.09473 0.17,-0.09343 0.16998,-0.10121 0.16998,-0.09343 0.17,-0.09473 0.16998,-0.08434 0.16999,-0.10251 0.17,-0.09343 0.16998,-0.09343 0.17,-0.09343 0.16998,-0.09343 0.16998,-0.10251 0.17,-0.09343 0.16998,-0.09343 0.16999,-0.09341 0.16998,-0.10253 0.16998,-0.08433 0.17,-0.10251 0.16998,-0.09343 0.16999,-0.09345 0.17,-0.09343 0.16998,-0.1025 0.16998,-0.09343 0.17,-0.10251 0.16998,-0.09343 0.16999,-0.09343 0.16999,-0.10251 0.16999,-0.09343 0.16999,-0.10121 0.16999,-0.09472 0.16997,-0.09344 0.16999,-0.10121 0.16999,-0.09341 0.16998,-0.10253 0.17,-0.09341 0.16998,-0.10252 0.17,-0.10251 0.16998,-0.09343 0.16999,-0.09343 0.16999,-0.10123 0.16999,-0.10249 0.16998,-0.09345 0.17,-0.10249 0.16998,-0.10123 0.16996,-0.09471 0.17,-0.10123 0.16999,-0.09342 0.17,-0.10251 0.16998,-0.10251 0.16998,-0.10121 0.17,-0.09475 0.16998,-0.10121 0.16999,-0.10251 0.16999,-0.10121 0.16999,-0.10251 0.17,-0.1025 0.16998,-0.09344 0.16998,-0.1025 0.17,-0.10121 0.16997,-0.10253 0.16998,-0.10251 0.17,-0.10121 0.16998,-0.10251 0.16998,-0.10252 0.17,-0.10121 0.16998,-0.09342 0.17,-0.1103 0.16999,-0.10251 0.16998,-0.10251 0.17,-0.10121 0.16998,-0.10252 0.16998,-0.10251 0.17,-0.10251 0.16998,-0.10121 0.16997,-0.10251 0.17,-0.11031 0.16998,-0.10251 0.17,-0.10121 0.16999,-0.10251 0.16998,-0.10252 0.16999,-0.11029 0.16999,-0.10252 0.16998,-0.11029 0.17,-0.10122 0.16998,-0.10251 0.17,-0.1103 0.16998,-0.10251 0.16999,-0.10249 0.16999,-0.11031 0.16997,-0.10122 0.16998,-0.11157 0.17,-0.10123 0.16999,-0.10251 0.16998,-0.11029 0.17,-0.11161 0.16998,-0.10121 0.17,-0.11029 0.16998,-0.10252 0.16998,-0.11029 0.17,-0.11031 0.16998,-0.10251 0.16998,-0.11029 0.17,-0.10252 0.16997,-0.11029 0.17,-0.11031 0.16998,-0.11158 0.16999,-0.11031 0.17,-0.10249 0.16998,-0.11031 0.16998,-0.11029 0.17,-0.11029 0.16998,-0.11031 0.16999,-0.1116 0.16999,-0.11029 0.16999,-0.11031 0.16999,-0.11029 0.16999,-0.1116 0.16998,-0.11029 0.16999,-0.1103 0.16998,-0.1103 0.16998,-0.1103 0.17,-0.11159 0.16998,-0.11029 0.17,-0.11029 0.16998,-0.11031 0.16998,-0.11938 0.17,-0.11029 0.16999,-0.11031 0.16998,-0.1116 0.17,-0.11807 0.16998,-0.11159 0.16998,-0.11029 0.17,-0.11938 0.16997,-0.11031 0.17,-0.11939 0.16998,-0.11029 0.16998,-0.1103 0.17,-0.11938 0.16998,-0.1103 0.16999,-0.11937 0.16999,-0.1103 0.16998,-0.11937 0.17,-0.11939 0.16999,-0.1103 0.16998,-0.11939 0.17,-0.11807 0.16998,-0.11159 0.16998,-0.11808 0.16999,-0.11939 0.16998,-0.11938 0.16998,-0.11939 0.17,-0.11029 0.16998,-0.11939 0.17,-0.11808 0.16999,-0.11937 0.16998,-0.11939 0.17,-0.11938 0.16998,-0.11938 0.16999,-0.11808 0.16999,-0.11938 0.16998,-0.11937 0.17,-0.11939 0.16997,-0.12716 0.16998,-0.11939 0.17,-0.11809 0.16998,-0.12844 0.16999,-0.11939 0.16999,-0.11809 0.16999,-0.11938 0.16998,-0.12845 0.17,-0.11809 0.16998,-0.12846 0.17,-0.11809 0.16998,-0.11939 0.16999,-0.11938 0.17,-0.12715 0.16998,-0.12847 0.16996,-0.11808 0.17,-0.12847 0.16999,-0.12716 0.16999,-0.12717 0.16998,-0.11938 0.16999,-0.12717 0.17,-0.11939 0.16998,-0.12844 0.16998,-0.12717 0.17,-0.12717 0.16998,-0.12848 0.16999,-0.12715 0.17,-0.12717 0.16998,-0.12716 0.17,-0.12848 0.16996,-0.12715 0.16999,-0.12717 0.17,-0.12846 0.16998,-0.12717 0.16998,-0.13625 0.17,-0.12716 0.16998,-0.12848 0.17,-0.13495 0.16998,-0.12845 0.16999,-0.12717 0.16999,-0.13626 0.16999,-0.12716 0.16998,-0.13625 0.17,-0.12846 0.16998,-0.13625 0.16997,-0.12717 0.17,-0.13626 0.16998,-0.13623 0.17,-0.12717 0.16998,-0.13625 0.16998,-0.13627 0.17,-0.13623 0.16999,-0.13495 0.16998,-0.13626 0.17,-0.13624 0.16998,-0.13625 0.16998,-0.13626 0.17,-0.13624 0.16998,-0.13625 0.16998,-0.13626 0.16999,-0.13623 0.16998,-0.14404 0.17,-0.13627 0.16998,-0.13623 0.16999,-0.14404 0.16999,-0.13626 0.16999,-0.14403 0.17,-0.13624 0.16998,-0.14533 0.16998,-0.13626 0.17,-0.14404 0.16998,-0.14533 0.16998,-0.13494 0.17,-0.14533 0.16997,-0.14404 0.16999,-0.14534 0.16999,-0.14403 0.16998,-0.14534 0.17,-0.14403 0.16999,-0.14534 0.16998,-0.14404 0.17,-0.15311 0.16998,-0.14404 0.16998,-0.14533 0.17,-0.15312 0.16998,-0.14402 0.17,-0.14534 0.16998,-0.15311 0.16999,-0.15314 0.16998,-0.14403 0.16998,-0.15312 0.16999,-0.14532 0.17,-0.15313 0.16998,-0.1531 0.16998,-0.15314 0.17,-0.15181 0.16998,-0.15312 0.17,-0.15313 0.16998,-0.1531 0.16998,-0.16222 0.17,-0.1531 0.16999,-0.15314 0.16998,-0.16219 0.17,-0.15312 0.16997,-0.15312 0.16999,-0.16089 0.16999,-0.16222 0.16998,-0.1609 0.17,-0.15312 0.16998,-0.1622 0.16998,-0.1609 0.17,-0.16221 0.16998,-0.1609 0.16999,-0.1622 0.17,-0.1622 0.16998,-0.16998 0.16999,-0.16091 0.16999,-0.1622 0.16997,-0.17 0.17,-0.16088 0.16998,-0.17 0.16998,-0.1713 0.17,-0.16089 0.16998,-0.17 0.17,-0.16998 0.16998,-0.16998 0.16999,-0.17128 0.16999,-0.17 0.16999,-0.17777 0.16998,-0.17 0.17,-0.17127 0.16998,-0.17777 0.16999,-0.17 0.16998,-0.17907 0.16998,-0.17906 0.17,-0.16999 0.16998,-0.17778 0.16998,-0.17908 0.17,-0.17906 0.16998,-0.17776 0.16999,-0.18816 0.17,-0.17778 0.16998,-0.17908 0.17,-0.18684 0.16998,-0.17908 0.16998,-0.18686 0.17,-0.18686 0.16998,-0.18684 0.16997,-0.18816 0.17,-0.18685 0.16998,-0.18686 0.16999,-0.18686 0.16999,-0.18686 0.16999,-0.18816 0.16999,-0.19462 0.16999,-0.18816 0.16998,-0.19464 0.17,-0.19594 0.16998,-0.19594 0.16998,-0.19593 0.17,-0.19594 0.16999,-0.19466 0.16999,-0.19594 0.16997,-0.19594 0.16998,-0.19595 0.17,-0.20372 0.16999,-0.19593 0.16998,-0.20373 0.17,-0.20372 0.16998,-0.20503 0.16998,-0.20372 0.17,-0.20372 0.16999,-0.20503 0.16999,-0.20372 0.16998,-0.20373 0.16999,-0.2128 0.17,-0.20374 0.16996,-0.2128 0.16998,-0.20503 0.17,-0.21282 0.16999,-0.2115 0.17,-0.21281 0.16998,-0.21282 0.16998,-0.21278 0.17,-0.21282 0.16998,-0.21281 0.16999,-0.2206 0.16999,-0.62155 0.16999,-0.24655 0.16998,-0.23746 0.17,-0.24785 0.16998,-0.24653 0.16998,-0.24657 0.16999,-0.25433 0.16998,-0.25562 0.16999,-0.25563 0.16999,-0.25433 0.16998,-0.26471 0.17,-0.25434 0.16998,-0.26342 0.16999,-0.27249 0.17,-0.26342 0.16998,-0.2725 0.17,-0.27251 0.16998,-0.27249 0.16998,-0.28027 0.17,-0.28031 0.16997,-0.28157 0.16998,-0.28029 0.17,-0.28937 0.16998,-0.28936 0.17,-0.28937 0.16999,-0.28937 0.16998,-0.29715 0.16999,-0.29715 0.16999,-0.29846 0.16998,-0.29715 0.17,-0.30623 0.16998,-0.30624 0.16998,-0.62157 0.17,-0.34906 0.16999,-0.35683 0.16998,-0.35685 0.16998,-0.36592 0.16998,-0.36594 0.17,-0.3828 0.16998,-0.38278 0.16999,-0.39058 0.17,-0.39187 0.16998,-0.39969 0.17,-0.40874 0.16998,-0.41654 0.16998,-0.41653 0.17,-0.42561 0.16998,-0.65531 0.16998,-0.49308 0.16999,-0.50997 0.16998,-0.52814 0.16999,-0.54368 0.16999,-0.56188 0.16999,-0.57742 0.16999,-0.59563 0.16999,-0.79153 0.16998,-0.73186 0.17,-0.77337 0.16998,-0.82529 0.16998,-1.04588 0.17,-1.11464 0.16999,-1.46372 0.16999,-2.29678 z"
       style="fill:#15b6b8;fill-opacity:0.35;fill-rule:nonzero;stroke:none"
       transform="matrix(1.3333333,0,0,-1.3333333,64.252,177.63733)"
       clip-path="url(#clipPath2)" />
    <path
       id="path3"
       d="M 60.13274,0 C 60.13274,33.21082 33.21082,60.13274 0,60.13274 -33.21082,60.13274 -60.13274,33.21082 -60.13274,0 c 0,-33.21082 26.92192,-60.13274 60.13274,-60.13274 33.21082,0 60.13274,26.92192 60.13274,60.13274 z"
       style="fill:none;stroke:#808080;stroke-width:0.49814;stroke-linecap:round;stroke-linejoin:round;stroke-miterlimit:10;stroke-dasharray:0.49814, 1.99255;stroke-dashoffset:0;stroke-opacity:1"
       transform="matrix(1.3333333,0,0,-1.3333333,64.252,177.63733)"
       clip-path="url(#clipPath4)" />
    <path
       id="path5"
       d="M 73.64738,0 C 73.64738,40.67485 40.67485,73.64738 0,73.64738 -40.67485,73.64738 -73.64738,40.67485 -73.64738,0 c 0,-40.67485 32.97253,-73.64738 73.64738,-73.64738 40.67485,0 73.64738,32.97253 73.64738,73.64738 z"
       style="fill:none;stroke:#808080;stroke-width:0.49814;stroke-linecap:round;stroke-linejoin:round;stroke-miterlimit:10;stroke-dasharray:0.49814, 1.99255;stroke-dashoffset:0;stroke-opacity:1"
       transform="matrix(1.3333333,0,0,-1.3333333,64.252,177.63733)"
       clip-path="url(#clipPath6)" />
    <path
       id="path7"
       d="m 85.04045,0 c 0,46.96715 -38.0733,85.04045 -85.04045,85.04045 -46.96715,0 -85.04045,-38.0733 -85.04045,-85.04045 0,-46.96715 38.0733,-85.04045 85.04045,-85.04045 46.96715,0 85.04045,38.0733 85.04045,85.04045 z"
       style="fill:none;stroke:#808080;stroke-width:0.49814;stroke-linecap:round;stroke-linejoin:round;stroke-miterlimit:10;stroke-dasharray:0.49814, 1.99255;stroke-dashoffset:0;stroke-opacity:1"
       transform="matrix(1.3333333,0,0,-1.3333333,64.252,177.63733)"
       clip-path="url(#clipPath8)" />
    <path
       id="path9"
       d="M -42.52022,0 H 127.1024"
       style="fill:none;stroke:#000000;stroke-width:0.3985;stroke-linecap:round;stroke-linejoin:round;stroke-miterlimit:10;stroke-dasharray:none;stroke-opacity:1"
       transform="matrix(1.3333333,0,0,-1.3333333,64.252,177.63733)"
       clip-path="url(#clipPath10)" />
    <path
       id="path11"
       d="M -1.19551,1.59401 C -1.09587,0.99626 0,0.09961 0.29886,0 0,-0.09961 -1.09587,-0.99626 -1.19551,-1.59401"
       style="fill:none;stroke:#000000;stroke-width:0.31879;stroke-linecap:round;stroke-linejoin:round;stroke-miterlimit:10;stroke-dasharray:none;stroke-opacity:1"
       transform="matrix(1.3333333,0,0,-1.3333333,233.72187,177.63733)"
       clip-path="url(#clipPath12)" />
    <path
       id="path13"
       d="m -42.52022,1.99255 v -3.9851"
       style="fill:none;stroke:#000000;stroke-width:0.3985;stroke-linecap:round;stroke-linejoin:round;stroke-miterlimit:10;stroke-dasharray:none;stroke-opacity:1"
       transform="matrix(1.3333333,0,0,-1.3333333,64.252,177.63733)"
       clip-path="url(#clipPath14)" />
    <g
       id="g14"
       aria-label="−0.5"
       transform="matrix(1.3333333,0,0,1.3333333,-4.0453333,191.836)"
       clip-path="url(#clipPath19)">
      <path
         id="path15"
         d="m 5.56525,-1.8047344 c 0.1289063,0 0.3046875,0 0.3046875,-0.1875 0,-0.1875 -0.1757812,-0.1875 -0.3046875,-0.1875 H 1.0066563 c -0.1289063,0 -0.30468755,0 -0.30468755,0.1875 0,0.1875 0.17578125,0.1875 0.30468755,0.1875 z m 0,0"
         style="fill:#000000;fill-opacity:1;fill-rule:nonzero;stroke:none" />
      <path
         id="path16"
         d="m 10.490055,-2.5430156 c 0,-0.8554688 -0.09375,-1.3710938 -0.351563,-1.875 -0.3515623,-0.703125 -0.9960936,-0.8789063 -1.4414061,-0.8789063 -0.9960937,0 -1.3710937,0.75 -1.4765625,0.9726563 -0.2929687,0.5742187 -0.3046875,1.3710937 -0.3046875,1.78125 0,0.5273437 0.023437,1.3359375 0.4101563,1.96874997 0.3632812,0.5859375 0.9492187,0.73828125 1.3710937,0.73828125 0.3867188,0 1.0664063,-0.1171875 1.4648441,-0.90234375 0.292968,-0.57421877 0.328125,-1.28906247 0.328125,-1.80468747 z m -1.7929691,2.48437497 c -0.2695312,0 -0.8203125,-0.12890625 -0.984375,-0.96093747 -0.09375,-0.4570313 -0.09375,-1.2070313 -0.09375,-1.6171875 0,-0.5507813 0,-1.1132813 0.09375,-1.546875 0.1640625,-0.8085938 0.7851563,-0.890625 0.984375,-0.890625 0.2695313,0 0.8203125,0.1289062 0.984375,0.8554687 0.09375,0.4453125 0.09375,1.0429688 0.09375,1.5820313 0,0.46875 0,1.1835937 -0.09375,1.6289062 -0.1640625,0.84375002 -0.7148437,0.94921877 -0.984375,0.94921877 z m 0,0"
         style="fill:#000000;fill-opacity:1;fill-rule:nonzero;stroke:none" />
      <path
         id="path17"
         d="m 12.438297,-0.43364063 c 0,-0.28125 -0.222656,-0.4453125 -0.433594,-0.4453125 -0.257812,0 -0.445312,0.19921875 -0.445312,0.43359375 0,0.26953125 0.222656,0.445312505 0.433593,0.445312505 0.257813,0 0.445313,-0.210937505 0.445313,-0.433593755 z m 0,0"
         style="fill:#000000;fill-opacity:1;fill-rule:nonzero;stroke:none" />
      <path
         id="path18"
         d="m 14.28693,-4.4766094 c 0.105468,0.035156 0.421875,0.1054688 0.761718,0.1054688 0.996094,0 1.59375,-0.6914063 1.59375,-0.8203125 0,-0.082031 -0.04687,-0.1054688 -0.09375,-0.1054688 -0.01172,0 -0.02344,0 -0.105468,0.035156 -0.304688,0.1171875 -0.667969,0.2226562 -1.101563,0.2226562 -0.46875,0 -0.855469,-0.1289062 -1.113281,-0.2226562 -0.07031,-0.035156 -0.09375,-0.035156 -0.09375,-0.035156 -0.105469,0 -0.105469,0.082031 -0.105469,0.234375 v 2.3320313 c 0,0.140625 0,0.234375 0.128906,0.234375 0.05859,0 0.08203,-0.035156 0.128907,-0.09375 0.09375,-0.1171875 0.398437,-0.5273438 1.066406,-0.5273438 0.445312,0 0.667969,0.3632813 0.738281,0.515625 0.128906,0.2929688 0.152344,0.65625 0.152344,0.9726563 0,0.2929687 -0.01172,0.71484372 -0.234375,1.06640622 -0.152344,0.24609375 -0.46875,0.4921875 -0.890625,0.4921875 -0.515625,0 -1.03125,-0.328125 -1.207031,-0.84375 0.02344,0 0.07031,0 0.07031,0 0.222656,0 0.398438,-0.14062502 0.398438,-0.38671872 0,-0.2929688 -0.222657,-0.3984375 -0.386719,-0.3984375 -0.140625,0 -0.398438,0.082031 -0.398438,0.421875 0,0.71484372 0.621094,1.44140622 1.535157,1.44140622 0.996093,0 1.839843,-0.7734375 1.839843,-1.75781252 0,-0.9257812 -0.667968,-1.7460937 -1.605468,-1.7460937 -0.398438,0 -0.773438,0.1289062 -1.078125,0.3984375 z m 0,0"
         style="fill:#000000;fill-opacity:1;fill-rule:nonzero;stroke:none" />
    </g>
    <path
       id="path20"
       d="m 42.52022,1.99255 v -3.9851"
       style="fill:none;stroke:#000000;stroke-width:0.3985;stroke-linecap:round;stroke-linejoin:round;stroke-miterlimit:10;stroke-dasharray:none;stroke-opacity:1"
       transform="matrix(1.3333333,0,0,-1.3333333,64.252,177.63733)"
       clip-path="url(#clipPath21)" />
    <g
       id="g21"
       aria-label="0.5"
       transform="matrix(1.3333333,0,0,1.3333333,113.73067,191.836)"
       clip-path="url(#clipPath25)">
      <path
         id="path22"
         d="m 3.9021953,-2.5430156 c 0,-0.8554688 -0.09375,-1.3710938 -0.3515625,-1.875 -0.3515625,-0.703125 -0.9960937,-0.8789063 -1.4414062,-0.8789063 -0.9960938,0 -1.37109379,0.75 -1.47656254,0.9726563 -0.29296875,0.5742187 -0.3046875,1.3710937 -0.3046875,1.78125 0,0.5273437 0.0234375,1.3359375 0.41015625,1.96874997 0.36328129,0.5859375 0.94921879,0.73828125 1.37109379,0.73828125 0.3867187,0 1.0664062,-0.1171875 1.4648437,-0.90234375 0.2929688,-0.57421877 0.328125,-1.28906247 0.328125,-1.80468747 z m -1.7929687,2.48437497 c -0.2695313,0 -0.8203125,-0.12890625 -0.984375,-0.96093747 -0.09375,-0.4570313 -0.09375,-1.2070313 -0.09375,-1.6171875 0,-0.5507813 0,-1.1132813 0.09375,-1.546875 0.1640625,-0.8085938 0.7851562,-0.890625 0.984375,-0.890625 0.2695312,0 0.8203125,0.1289062 0.984375,0.8554687 0.09375,0.4453125 0.09375,1.0429688 0.09375,1.5820313 0,0.46875 0,1.1835937 -0.09375,1.6289062 -0.1640625,0.84375002 -0.7148438,0.94921877 -0.984375,0.94921877 z m 0,0"
         style="fill:#000000;fill-opacity:1;fill-rule:nonzero;stroke:none" />
      <path
         id="path23"
         d="m 5.8504375,-0.43364063 c 0,-0.28125 -0.2226563,-0.4453125 -0.4335938,-0.4453125 -0.2578125,0 -0.4453125,0.19921875 -0.4453125,0.43359375 0,0.26953125 0.2226563,0.445312505 0.4335938,0.445312505 0.2578125,0 0.4453125,-0.210937505 0.4453125,-0.433593755 z m 0,0"
         style="fill:#000000;fill-opacity:1;fill-rule:nonzero;stroke:none" />
      <path
         id="path24"
         d="m 7.6990703,-4.4766094 c 0.1054688,0.035156 0.421875,0.1054688 0.7617188,0.1054688 0.9960937,0 1.5937499,-0.6914063 1.5937499,-0.8203125 0,-0.082031 -0.04687,-0.1054688 -0.09375,-0.1054688 -0.011719,0 -0.023437,0 -0.1054688,0.035156 -0.3046875,0.1171875 -0.6679687,0.2226562 -1.1015625,0.2226562 -0.46875,0 -0.8554687,-0.1289062 -1.1132812,-0.2226562 -0.070312,-0.035156 -0.09375,-0.035156 -0.09375,-0.035156 -0.1054688,0 -0.1054688,0.082031 -0.1054688,0.234375 v 2.3320313 c 0,0.140625 0,0.234375 0.1289063,0.234375 0.058594,0 0.082031,-0.035156 0.1289062,-0.09375 0.09375,-0.1171875 0.3984375,-0.5273438 1.0664063,-0.5273438 0.4453125,0 0.6679687,0.3632813 0.7382812,0.515625 0.1289063,0.2929688 0.1523438,0.65625 0.1523438,0.9726563 0,0.2929687 -0.011719,0.71484372 -0.234375,1.06640622 -0.1523438,0.24609375 -0.46875,0.4921875 -0.890625,0.4921875 -0.515625,0 -1.03125,-0.328125 -1.2070313,-0.84375 0.023437,0 0.070312,0 0.070312,0 0.2226563,0 0.3984375,-0.14062502 0.3984375,-0.38671872 0,-0.2929688 -0.2226562,-0.3984375 -0.3867187,-0.3984375 -0.140625,0 -0.3984375,0.082031 -0.3984375,0.421875 0,0.71484372 0.6210937,1.44140622 1.5351562,1.44140622 0.9960938,0 1.8398433,-0.7734375 1.8398433,-1.75781252 0,-0.9257812 -0.6679683,-1.7460937 -1.6054683,-1.7460937 -0.3984375,0 -0.7734375,0.1289062 -1.078125,0.3984375 z m 0,0"
         style="fill:#000000;fill-opacity:1;fill-rule:nonzero;stroke:none" />
    </g>
    <path
       id="path26"
       d="m 85.04045,1.99255 v -3.9851"
       style="fill:none;stroke:#000000;stroke-width:0.3985;stroke-linecap:round;stroke-linejoin:round;stroke-miterlimit:10;stroke-dasharray:none;stroke-opacity:1"
       transform="matrix(1.3333333,0,0,-1.3333333,64.252,177.63733)"
       clip-path="url(#clipPath27)" />
    <path
       id="path28"
       d="m 2.5091172,-5.0742656 c 0,-0.2226563 -0.023437,-0.2226563 -0.234375,-0.2226563 -0.328125,0.3164063 -0.75,0.5039063 -1.51171876,0.5039063 v 0.2695312 c 0.22265625,0 0.64453126,0 1.11328126,-0.2226562 v 4.08984372 c 0,0.29296875 -0.023437,0.3984375 -0.7851563,0.3984375 H 0.80989844 V -4.6875e-5 C 1.1380234,-0.02348438 1.8294297,-0.02348438 2.1809922,-0.02348438 c 0.3632812,0 1.0546875,0 1.3828125,0.023437505 V -0.25785938 h -0.28125 c -0.75,0 -0.7734375,-0.10546875 -0.7734375,-0.3984375 z m 0,0"
       style="fill:#000000;fill-opacity:1;fill-rule:nonzero;stroke:none"
       aria-label="1"
       transform="matrix(1.3333333,0,0,1.3333333,174.81467,191.836)"
       clip-path="url(#clipPath29)" />
    <path
       id="path30"
       d="M 0,-42.52022 V 127.1024"
       style="fill:none;stroke:#000000;stroke-width:0.3985;stroke-linecap:round;stroke-linejoin:round;stroke-miterlimit:10;stroke-dasharray:none;stroke-opacity:1"
       transform="matrix(1.3333333,0,0,-1.3333333,64.252,177.63733)"
       clip-path="url(#clipPath31)" />
    <path
       id="path32"
       d="M -1.19551,1.59401 C -1.09587,0.99626 0,0.09961 0.29886,0 0,-0.09961 -1.09587,-0.99626 -1.19551,-1.59401"
       style="fill:none;stroke:#000000;stroke-width:0.31879;stroke-linecap:round;stroke-linejoin:round;stroke-miterlimit:10;stroke-dasharray:none;stroke-opacity:1"
       transform="matrix(0,-1.3333333,-1.3333333,0,64.252,8.1674667)"
       clip-path="url(#clipPath33)" />
    <path
       id="path34"
       d="m 1.99255,-42.52022 h -3.9851"
       style="fill:none;stroke:#000000;stroke-width:0.3985;stroke-linecap:round;stroke-linejoin:round;stroke-miterlimit:10;stroke-dasharray:none;stroke-opacity:1"
       transform="matrix(1.3333333,0,0,-1.3333333,64.252,177.63733)"
       clip-path="url(#clipPath35)" />
    <g
       id="g35"
       aria-label="−0.5"
       transform="matrix(1.3333333,0,0,1.3333333,33.692,237.20133)"
       clip-path="url(#clipPath40)">
      <path
         id="path36"
         d="m 5.5659609,-1.8033438 c 0.1289063,0 0.3046875,0 0.3046875,-0.1875 0,-0.1875 -0.1757812,-0.1875 -0.3046875,-0.1875 H 1.0073672 c -0.12890626,0 -0.30468751,0 -0.30468751,0.1875 0,0.1875 0.17578125,0.1875 0.30468751,0.1875 z m 0,0"
         style="fill:#000000;fill-opacity:1;fill-rule:nonzero;stroke:none" />
      <path
         id="path37"
         d="m 10.487836,-2.541625 c 0,-0.8554688 -0.09375,-1.3710938 -0.351563,-1.875 -0.3515621,-0.703125 -0.9960933,-0.8789063 -1.4414058,-0.8789063 -0.9960938,0 -1.3710938,0.75 -1.4765625,0.9726563 -0.2929688,0.5742187 -0.3046875,1.3710937 -0.3046875,1.78125 0,0.5273437 0.023437,1.3359375 0.4101562,1.96875 0.3632813,0.5859375 0.9492188,0.73828125 1.3710938,0.73828125 0.3867187,0 1.0664062,-0.1171875 1.4648438,-0.90234375 C 10.45268,-1.3111563 10.487836,-2.026 10.487836,-2.541625 Z M 8.6948672,-0.05725 c -0.2695313,0 -0.8203125,-0.12890625 -0.984375,-0.9609375 -0.09375,-0.4570313 -0.09375,-1.2070313 -0.09375,-1.6171875 0,-0.5507813 0,-1.1132813 0.09375,-1.546875 0.1640625,-0.8085938 0.7851562,-0.890625 0.984375,-0.890625 0.2695312,0 0.8203125,0.1289062 0.984375,0.8554687 0.09375,0.4453125 0.09375,1.0429688 0.09375,1.5820313 0,0.46875 0,1.1835937 -0.09375,1.6289062 C 9.5151797,-0.16271875 8.9643984,-0.05725 8.6948672,-0.05725 Z m 0,0"
         style="fill:#000000;fill-opacity:1;fill-rule:nonzero;stroke:none" />
      <path
         id="path38"
         d="m 12.439008,-0.43225 c 0,-0.28125 -0.222656,-0.4453125 -0.433594,-0.4453125 -0.257812,0 -0.445312,0.19921875 -0.445312,0.43359375 0,0.26953125 0.222656,0.4453125 0.433593,0.4453125 0.257813,0 0.445313,-0.2109375 0.445313,-0.43359375 z m 0,0"
         style="fill:#000000;fill-opacity:1;fill-rule:nonzero;stroke:none" />
      <path
         id="path39"
         d="m 14.287641,-4.4752188 c 0.105468,0.035156 0.421875,0.1054688 0.761718,0.1054688 0.996094,0 1.59375,-0.6914063 1.59375,-0.8203125 0,-0.082031 -0.04687,-0.1054688 -0.09375,-0.1054688 -0.01172,0 -0.02344,0 -0.105468,0.035156 -0.304688,0.1171875 -0.667969,0.2226562 -1.101563,0.2226562 -0.46875,0 -0.855469,-0.1289062 -1.113281,-0.2226562 -0.07031,-0.035156 -0.09375,-0.035156 -0.09375,-0.035156 -0.105469,0 -0.105469,0.082031 -0.105469,0.234375 v 2.3320313 c 0,0.140625 0,0.234375 0.128906,0.234375 0.05859,0 0.08203,-0.035156 0.128907,-0.09375 0.09375,-0.1171875 0.398437,-0.5273438 1.066406,-0.5273438 0.445312,0 0.667969,0.3632813 0.738281,0.515625 0.128906,0.2929688 0.152344,0.65625 0.152344,0.9726563 0,0.2929687 -0.01172,0.71484375 -0.234375,1.06640625 -0.152344,0.24609375 -0.46875,0.4921875 -0.890625,0.4921875 -0.515625,0 -1.03125,-0.328125 -1.207031,-0.84375 0.02344,0 0.07031,0 0.07031,0 0.222656,0 0.398438,-0.14062505 0.398438,-0.38671875 0,-0.2929688 -0.222657,-0.3984375 -0.386719,-0.3984375 -0.140625,0 -0.398438,0.082031 -0.398438,0.421875 0,0.71484375 0.621094,1.44140625 1.535157,1.44140625 0.996093,0 1.839843,-0.7734375 1.839843,-1.75781255 0,-0.9257812 -0.667968,-1.7460937 -1.605468,-1.7460937 -0.398438,0 -0.773438,0.1289062 -1.078125,0.3984375 z m 0,0"
         style="fill:#000000;fill-opacity:1;fill-rule:nonzero;stroke:none" />
    </g>
    <path
       id="path41"
       d="m 1.99255,42.52022 h -3.9851"
       style="fill:none;stroke:#000000;stroke-width:0.3985;stroke-linecap:round;stroke-linejoin:round;stroke-miterlimit:10;stroke-dasharray:none;stroke-opacity:1"
       transform="matrix(1.3333333,0,0,-1.3333333,64.252,177.63733)"
       clip-path="url(#clipPath42)" />
    <g
       id="g42"
       aria-label="0.5"
       transform="matrix(1.3333333,0,0,1.3333333,42.474667,124.368)"
       clip-path="url(#clipPath46)">
      <path
         id="path43"
         d="m 3.9037656,-2.5435781 c 0,-0.8554688 -0.09375,-1.3710938 -0.3515625,-1.875 -0.3515625,-0.703125 -0.9960937,-0.8789063 -1.4414062,-0.8789063 -0.9960938,0 -1.37109377,0.75 -1.47656252,0.9726563 -0.29296875,0.5742187 -0.3046875,1.3710937 -0.3046875,1.78125 0,0.5273437 0.0234375,1.3359375 0.41015625,1.96874997 0.36328127,0.5859375 0.94921877,0.73828125 1.37109377,0.73828125 0.3867187,0 1.0664062,-0.1171875 1.4648437,-0.90234375 0.2929688,-0.57421877 0.328125,-1.28906247 0.328125,-1.80468747 z m -1.7929687,2.48437497 c -0.2695313,0 -0.8203125,-0.12890625 -0.984375,-0.96093747 -0.09375,-0.4570313 -0.09375,-1.2070313 -0.09375,-1.6171875 0,-0.5507813 0,-1.1132813 0.09375,-1.546875 0.1640625,-0.8085938 0.7851562,-0.890625 0.984375,-0.890625 0.2695312,0 0.8203125,0.1289062 0.984375,0.8554687 0.09375,0.4453125 0.09375,1.0429688 0.09375,1.5820313 0,0.46875 0,1.1835937 -0.09375,1.6289062 -0.1640625,0.84375002 -0.7148438,0.94921877 -0.984375,0.94921877 z m 0,0"
         style="fill:#000000;fill-opacity:1;fill-rule:nonzero;stroke:none" />
      <path
         id="path44"
         d="m 5.8520078,-0.43420313 c 0,-0.28125 -0.2226562,-0.4453125 -0.4335937,-0.4453125 -0.2578125,0 -0.4453125,0.19921875 -0.4453125,0.43359375 0,0.26953125 0.2226562,0.445312505 0.4335937,0.445312505 0.2578125,0 0.4453125,-0.210937505 0.4453125,-0.433593755 z m 0,0"
         style="fill:#000000;fill-opacity:1;fill-rule:nonzero;stroke:none" />
      <path
         id="path45"
         d="m 7.7006406,-4.4771719 c 0.1054688,0.035156 0.421875,0.1054688 0.7617188,0.1054688 0.9960937,0 1.5937496,-0.6914063 1.5937496,-0.8203125 0,-0.082031 -0.04687,-0.1054688 -0.09375,-0.1054688 -0.011719,0 -0.023437,0 -0.1054688,0.035156 -0.3046875,0.1171875 -0.6679687,0.2226562 -1.1015625,0.2226562 -0.46875,0 -0.8554687,-0.1289062 -1.1132812,-0.2226562 -0.070312,-0.035156 -0.09375,-0.035156 -0.09375,-0.035156 -0.1054688,0 -0.1054688,0.082031 -0.1054688,0.234375 v 2.3320313 c 0,0.140625 0,0.234375 0.1289063,0.234375 0.058594,0 0.082031,-0.035156 0.1289062,-0.09375 0.09375,-0.1171875 0.3984375,-0.5273438 1.0664063,-0.5273438 0.4453125,0 0.6679687,0.3632813 0.7382812,0.515625 0.1289063,0.2929688 0.1523438,0.65625 0.1523438,0.9726563 0,0.2929687 -0.011719,0.71484372 -0.234375,1.06640622 -0.1523438,0.24609375 -0.46875,0.4921875 -0.890625,0.4921875 -0.515625,0 -1.03125,-0.328125 -1.2070313,-0.84375 0.023437,0 0.070312,0 0.070312,0 0.2226563,0 0.3984375,-0.14062502 0.3984375,-0.38671872 0,-0.2929688 -0.2226562,-0.3984375 -0.3867187,-0.3984375 -0.140625,0 -0.3984375,0.082031 -0.3984375,0.421875 0,0.71484372 0.6210937,1.44140622 1.5351562,1.44140622 0.9960938,0 1.8398433,-0.7734375 1.8398433,-1.75781252 0,-0.9257812 -0.6679683,-1.7460937 -1.6054683,-1.7460937 -0.3984375,0 -0.7734375,0.1289062 -1.078125,0.3984375 z m 0,0"
         style="fill:#000000;fill-opacity:1;fill-rule:nonzero;stroke:none" />
    </g>
    <path
       id="path47"
       d="m 1.99255,85.04045 h -3.9851"
       style="fill:none;stroke:#000000;stroke-width:0.3985;stroke-linecap:round;stroke-linejoin:round;stroke-miterlimit:10;stroke-dasharray:none;stroke-opacity:1"
       transform="matrix(1.3333333,0,0,-1.3333333,64.252,177.63733)"
       clip-path="url(#clipPath48)" />
    <path
       id="path49"
       d="m 2.5091719,-5.0743828 c 0,-0.2226563 -0.023437,-0.2226563 -0.234375,-0.2226563 -0.328125,0.3164063 -0.75,0.5039063 -1.51171878,0.5039063 v 0.2695312 c 0.22265625,0 0.64453128,0 1.11328128,-0.2226562 v 4.08984374 c 0,0.29296875 -0.023437,0.3984375 -0.7851563,0.3984375 H 0.80995312 V -1.640625e-4 C 1.1380781,-0.02360156 1.8294844,-0.02360156 2.1810469,-0.02360156 c 0.3632812,0 1.0546875,0 1.3828125,0.0234374975 V -0.25797656 h -0.28125 c -0.75,0 -0.7734375,-0.10546875 -0.7734375,-0.3984375 z m 0,0"
       style="fill:#000000;fill-opacity:1;fill-rule:nonzero;stroke:none"
       aria-label="1"
       transform="matrix(1.3333333,0,0,1.3333333,51.256,67.676)"
       clip-path="url(#clipPath50)" />
    <path
       id="path51"
       d="m 3.9023281,-2.5441563 c 0,-0.8554687 -0.09375,-1.3710937 -0.3515625,-1.875 -0.3515625,-0.703125 -0.9960937,-0.8789062 -1.4414062,-0.8789062 -0.9960938,0 -1.37109377,0.75 -1.47656252,0.9726562 -0.29296875,0.5742188 -0.3046875,1.3710938 -0.3046875,1.78125 0,0.5273438 0.0234375,1.3359375 0.41015625,1.96875005 C 1.1015469,0.01053125 1.6874844,0.162875 2.1093594,0.162875 c 0.3867187,0 1.0664062,-0.1171875 1.4648437,-0.90234375 0.2929688,-0.57421875 0.328125,-1.28906255 0.328125,-1.80468755 z m -1.7929687,2.48437505 c -0.2695313,0 -0.8203125,-0.12890625 -0.984375,-0.96093755 -0.09375,-0.4570312 -0.09375,-1.2070312 -0.09375,-1.6171875 0,-0.5507812 0,-1.1132812 0.09375,-1.546875 0.1640625,-0.8085937 0.7851562,-0.890625 0.984375,-0.890625 0.2695312,0 0.8203125,0.1289063 0.984375,0.8554688 0.09375,0.4453125 0.09375,1.0429687 0.09375,1.5820312 0,0.46875 0,1.1835938 -0.09375,1.6289063 -0.1640625,0.84375 -0.7148438,0.94921875 -0.984375,0.94921875 z m 0,0"
       style="fill:#000000;fill-opacity:1;fill-rule:nonzero;stroke:none"
       aria-label="0"
       transform="matrix(1.3333333,0,0,1.3333333,68.945333,194.34533)"
       clip-path="url(#clipPath52)" />
    <path
       id="path53"
       d="m -42.52022,127.56067 7.08628,-7.08626 7.08627,-7.08629 7.08627,-7.08626 7.08627,-7.08628 7.08628,-7.08626 7.08627,-7.08629 7.08624,-7.08626 7.08628,-7.08629 7.08627,-7.08625 7.08627,-7.08628 7.08628,-7.08627 7.08627,-7.08628 7.08627,-7.08627 7.08626,-7.08626 7.08629,-7.08628 7.08625,-7.08626 7.0863,-7.08629 7.08625,-7.08626 7.08628,-7.08626 7.08627,-7.08625 7.08627,-7.08629 7.08628,-7.08626 7.08627,-7.08629 7.08628,-7.08626"
       style="fill:none;stroke:#01528e;stroke-width:0.79701;stroke-linecap:round;stroke-linejoin:round;stroke-miterlimit:10;stroke-dasharray:none;stroke-opacity:1"
       transform="matrix(1.3333333,0,0,-1.3333333,64.252,177.63733)"
       clip-path="url(#clipPath54)" />
    <path
       id="path55"
       d="m -42.52022,104.14781 0.25565,-0.10381 0.25561,-0.1051 0.25563,-0.1064 0.25563,-0.1025 0.25563,-0.1051 0.25564,-0.10642 0.25563,-0.10512 0.25563,-0.1038 0.25563,-0.1077 0.25563,-0.10381 0.25563,-0.10511 0.25563,-0.10511 0.25563,-0.1064 0.25563,-0.1038 0.25563,-0.10771 0.25561,-0.10511 0.25565,-0.10771 0.25562,-0.1038 0.25564,-0.109 0.25563,-0.10641 0.25561,-0.1051 0.25565,-0.109 0.25562,-0.1038 0.25564,-0.10901 0.25562,-0.10511 0.25563,-0.10769 0.25564,-0.10642 0.25562,-0.10769 0.25565,-0.10642 0.25561,-0.10768 0.25563,-0.10771 0.25563,-0.10899 0.25563,-0.10642 0.25565,-0.10899 0.25561,-0.10901 0.25563,-0.1064 0.25564,-0.11031 0.25563,-0.1064 0.25564,-0.1103 0.25562,-0.109 0.25563,-0.10769 0.25563,-0.11029 0.25563,-0.10901 0.25563,-0.109 0.25563,-0.11029 0.25563,-0.10771 0.25563,-0.1103 0.25563,-0.109 0.25562,-0.11029 0.25564,-0.10899 0.25561,-0.1129 0.25565,-0.10642 0.25563,-0.10899 0.25562,-0.1116 0.25564,-0.11159 0.25562,-0.11159 0.25564,-0.1103 0.25562,-0.11288 0.25563,-0.1103 0.25565,-0.11291 0.25561,-0.10899 0.25565,-0.11161 0.25561,-0.11157 0.25563,-0.11031 0.25565,-0.1129 0.25561,-0.11288 0.25565,-0.11031 0.25562,-0.11288 0.25563,-0.1129 0.25563,-0.11159 0.25563,-0.1129 0.25564,-0.11159 0.25562,-0.11418 0.25563,-0.1129 0.25563,-0.11419 0.25563,-0.11289 0.25561,-0.11288 0.25565,-0.11161 0.25563,-0.11419 0.25563,-0.11418 0.25563,-0.1155 0.25562,-0.11288 0.25564,-0.1142 0.25563,-0.11418 0.25563,-0.11549 0.25563,-0.1142 0.25562,-0.11419 0.25564,-0.11549 0.25562,-0.11419 0.25565,-0.11678 0.25563,-0.11418 0.25561,-0.1142 0.25565,-0.11549 0.25561,-0.1155 0.25565,-0.11547 0.25561,-0.11808 0.25564,-0.11549 0.25564,-0.11809 0.25562,-0.11418 0.25564,-0.11809 0.25562,-0.11549 0.25563,-0.11938 0.25563,-0.11548 0.25562,-0.11809 0.25564,-0.11678 0.25563,-0.11679 0.25563,-0.11809 0.25563,-0.11808 0.25563,-0.11937 0.25563,-0.11679 0.25563,-0.11939 0.25563,-0.11677 0.25563,-0.12067 0.25563,-0.1168 0.25562,-0.11808 0.25564,-0.12068 0.25563,-0.11939 0.25563,-0.11807 0.25564,-0.1207 0.25561,-0.11935 0.25565,-0.1207 0.25561,-0.11938 0.25565,-0.11937 0.25563,-0.12068 0.25561,-0.12067 0.25565,-0.11938 0.25562,-0.12198 0.25564,-0.12068 0.25561,-0.12069 0.25564,-0.12196 0.25564,-0.1207 0.25562,-0.12066 0.25563,-0.12328 0.25562,-0.12198 0.25564,-0.12327 0.25564,-0.12197 0.25562,-0.12198 0.25563,-0.12327 0.25563,-0.12198 0.25563,-0.12196 0.25563,-0.12328 0.25563,-0.12329 0.25563,-0.12328 0.25563,-0.12455 0.25563,-0.12328 0.25563,-0.12456 0.25563,-0.12327 0.25562,-0.12459 0.25564,-0.12456 0.25564,-0.12587 0.25563,-0.12457 0.25563,-0.12457 0.25561,-0.12458 0.25565,-0.12587 0.25563,-0.12455 0.25563,-0.12589 0.25563,-0.12587 0.25561,-0.12587 0.25565,-0.12716 0.25561,-0.12717 0.25565,-0.12456 0.25563,-0.12717 0.25562,-0.12716 0.25564,-0.12717 0.25562,-0.12718 0.25563,-0.12845 0.2556,-0.11549 L 0.4256,84.83023 0.68124,84.71214 0.93686,84.5759 1.19249,84.44743 1.44812,84.32935 1.70375,84.19312 1.95938,84.06464 2.21501,83.93747 2.47064,83.8103 2.72627,83.68315 2.9819,83.54689 3.23753,83.41843 3.49316,83.29126 3.7488,83.15501 4.00443,83.02785 4.26006,82.89159 4.51569,82.76443 4.77132,82.62817 5.02693,82.49971 5.28258,82.36346 5.53821,82.2363 5.79384,82.10913 6.04947,81.97289 6.30508,81.83664 6.56073,81.70947 6.81635,81.57321 7.07198,81.43698 7.32762,81.3098 7.58324,81.17355 7.83888,81.03731 8.0945,80.91014 8.35013,80.7739 l 0.25563,-0.13627 0.25563,-0.13624 0.25564,-0.13625 0.25562,-0.13626 0.25563,-0.13624 0.25563,-0.13625 0.25563,-0.13625 0.25565,-0.13494 0.25561,-0.13627 0.25563,-0.13624 0.25563,-0.13625 0.25564,-0.13626 0.25562,-0.13624 0.25564,-0.13625 0.25563,-0.14404 0.25563,-0.13623 0.25563,-0.13626 0.25563,-0.14405 0.25562,-0.13623 0.25562,-0.13626 0.25565,-0.14534 0.25563,-0.13493 0.25561,-0.14534 0.25565,-0.13625 0.25562,-0.13624 0.25564,-0.14405 0.25563,-0.13624 0.25562,-0.14404 0.25564,-0.14534 0.25562,-0.13623 0.25564,-0.14405 0.25562,-0.14532 0.25563,-0.14405 0.25564,-0.14534 0.25562,-0.13493 0.25565,-0.14535 0.25561,-0.14403 0.25563,-0.14533 0.25563,-0.14404 0.25563,-0.14532 0.25565,-0.14405 0.25562,-0.14404 0.25562,-0.14532 0.25563,-0.14405 0.25564,-0.14532 0.25563,-0.14405 0.25563,-0.14532 0.25563,-0.15312 0.25562,-0.14403 0.25564,-0.14534 0.25563,-0.15311 0.25563,-0.14404 0.25563,-0.15312 0.25563,-0.14403 0.25563,-0.15312 0.25561,-0.14533 0.25565,-0.15313 0.25562,-0.14402 0.25564,-0.15313 0.25563,-0.14533 0.25562,-0.15312 0.25564,-0.15311 0.25562,-0.15313 0.25564,-0.15311 0.25562,-0.15312 0.25563,-0.14404 0.25565,-0.15311 0.25561,-0.15314 0.25565,-0.15311 0.25561,-0.15312 0.25563,-0.1531 0.25564,-0.1622 0.25562,-0.15313 0.25565,-0.15312 0.25561,-0.15312 0.25564,-0.16089 0.25563,-0.15314 0.25563,-0.1531 0.25564,-0.16222 0.25562,-0.15311 0.25563,-0.1609 0.25563,-0.15312 0.25563,-0.16222 0.25561,-0.1531 0.25565,-0.16091 0.25563,-0.1622 0.25563,-0.15311 0.25563,-0.16092 0.25562,-0.16218 0.25564,-0.16222 0.25562,-0.1609 0.25564,-0.16219 0.25563,-0.16092 0.25562,-0.1622 0.25565,-0.1609 0.25561,-0.1622 0.25565,-0.17 0.25561,-0.16089 0.25563,-0.1622 0.25565,-0.1609 0.25561,-0.1713 0.25565,-0.1609 0.25561,-0.16999 0.25563,-0.1622 0.25565,-0.16999 0.25561,-0.16999 0.25565,-0.1622 0.25562,-0.16998 0.25562,-0.16999 0.25564,-0.16998 0.25563,-0.17 0.25563,-0.16998 0.25563,-0.17 0.25563,-0.16998 0.25563,-0.16998 0.25563,-0.17128 0.25561,-0.17 0.25565,-0.17777 0.25563,-0.16999 0.25563,-0.16999 0.25563,-0.17907 0.25562,-0.16998 0.25564,-0.17908 0.25563,-0.17907 0.25564,-0.16998 0.25562,-0.17777 0.25562,-0.17909 0.25565,-0.17906 0.25561,-0.17776 0.25565,-0.17908 0.25563,-0.17908 0.25561,-0.17776 0.25565,-0.17908 0.25561,-0.18684 0.25565,-0.1791 0.25561,-0.17776 0.25563,-0.17906 0.25565,-0.18686 0.25561,-0.18816 0.25564,-0.17778 0.25563,-0.18686 0.25563,-0.18814 0.25563,-0.18686 0.25563,-0.18686 0.25563,-0.17907 0.25563,-0.18686 0.25563,-0.18685 0.25563,-0.19593 0.25563,-0.18686 0.25563,-0.19594 0.25563,-0.18686 0.25563,-0.19594 0.25563,-0.18686 0.25563,-0.19594 0.25562,-0.18685 0.25564,-0.19595 0.25563,-0.19593 0.25564,-0.19464 0.25563,-0.19594 0.25561,-0.19594 0.25565,-0.19594 0.25561,-0.20373 0.25565,-0.19594 0.25563,-0.19594 0.25561,-0.20373 0.25565,-0.20372 0.25561,-0.19594 0.25565,-0.20374 0.25561,-0.20501 0.25564,-0.20372 0.25564,-0.20374 0.25562,-0.20502 0.25563,-0.2128 0.25563,-0.20373 0.25563,-0.20372 0.25564,-0.21282 0.25562,-0.21279 0.25563,-0.21282 0.25563,-0.20372 0.25563,-0.21281 0.25563,-0.21282 0.25563,-0.2128 0.25563,-0.22059 0.25563,-0.21282 0.25564,-0.22189 0.25562,-0.21152 0.25563,-0.22188 0.25562,-0.22059 0.25565,-0.2219 0.25563,-0.22059 0.25563,-0.2219 0.25562,-0.22059 0.25562,-0.22968 0.25565,-0.22058 0.25563,-0.22969 0.25563,-0.22967 0.25563,-0.22969 0.25561,-0.22967 0.25565,-0.22967 0.25562,-0.22969 0.25563,-0.23875 0.25564,-0.23877 0.25562,-0.22838 0.25564,-0.23877 0.25562,-0.23876 0.25563,-0.23745 0.25563,-0.24656 0.25563,-0.23875 0.25564,-0.24655 0.25562,-0.24654 0.25563,-0.24655 0.25563,-0.24655 0.25563,-0.24655 0.25563,-0.25563 0.25564,-0.24654 0.25562,-0.25564 0.25563,-0.25432 0.25563,-0.25565 0.25563,-0.2634 0.25564,-0.25564 0.25563,-0.26341 0.25562,-0.26342 0.25564,-0.26341 0.25563,-0.26471 0.25563,-0.26343 0.25561,-0.27249 0.25565,-0.27119 0.25563,-0.27251 0.25561,-0.27249 0.25565,-0.27251 0.25562,-0.28029 0.25564,-0.28027 0.25562,-0.28158 0.25563,-0.28029 0.25564,-0.28029 0.25562,-0.28937 0.25564,-0.28937 0.25562,-0.28936 0.25563,-0.28936 0.25563,-0.28936 0.25563,-0.29717 0.25565,-0.29846 0.25561,-0.29715 0.25563,-0.29715 0.25563,-0.30623 0.25563,-0.29846 0.25565,-0.30623 0.25561,-0.30624 0.25563,-0.31403 0.25563,-0.30623 0.25564,-0.31532 0.25562,-0.31403 0.25564,-0.31532 0.25563,-0.31403 0.25563,-0.32438 0.25563,-0.31403 0.25561,-0.3231 0.25565,-0.32311 0.25561,-0.74873 0.25565,-0.36592 0.25563,-0.37502 0.25562,-0.37372 0.25564,-0.38279 0.25562,-0.38279 0.25564,-0.38279 0.25563,-0.39968 0.25562,-0.39187 0.25565,-0.40746 0.25561,-0.40875 0.25564,-0.40744 0.25562,-0.41785 0.25563,-0.42431 0.25565,-0.4256 0.25561,-0.43471 0.25564,-0.44119 0.25562,-0.44249 0.25563,-0.44248 0.25563,-0.45936 0.25563,-0.45157 0.25565,-0.79025 0.25561,-0.52813 0.25563,-0.53591 0.25564,-0.5528 0.25563,-0.56964 0.25563,-0.57874 0.25563,-0.59431 0.25563,-0.61375 0.25563,-0.62027 0.25563,-0.63843 0.25561,-0.8759 0.25565,-0.75649 0.25563,-0.79155 0.25563,-0.82528 0.25563,-0.8759 0.25562,-1.07183 0.25564,-1.0887 0.25562,-1.20808 0.25565,-1.5221 0.25562,-1.93084 0.25562,-4.2419"
       style="fill:none;stroke:#01528e;stroke-width:0.79701;stroke-linecap:round;stroke-linejoin:round;stroke-miterlimit:10;stroke-dasharray:none;stroke-opacity:1"
       transform="matrix(1.3333333,0,0,-1.3333333,64.252,177.63733)"
       clip-path="url(#clipPath56)" />
    <path
       id="path57"
       d="m 63.78033,-42.5306 0.04152,0.04282 0.04154,0.04283 0.0415,0.04282 0.04154,0.04282 0.04152,0.04153 0.04153,0.04282 0.04152,0.04283 0.04152,0.03372 0.04152,0.04283 0.04152,0.0428 0.04153,0.04283 0.04152,0.04154 0.04153,0.04281 0.04152,0.04282 0.04152,0.04282 0.04152,0.04153 0.04154,0.04283 0.04152,0.0428 0.04153,0.04283 0.04152,0.04282 0.04152,0.04152 0.04152,0.04283 0.04152,0.04282 0.04153,0.04283 0.04152,0.0415 0.04153,0.04283 0.04151,0.04282 0.04154,0.04283 0.04151,0.04152 0.04154,0.04282 0.04152,0.04283 0.04153,0.04281 0.0415,0.04284 0.04154,0.04152 0.04152,0.04281 0.04152,0.04283 0.04153,0.04282 0.04151,0.04152 0.04153,0.04283 0.04152,0.04282 0.04153,0.04281 0.04152,0.04282 0.04154,0.04153 0.0415,0.04282 0.04154,0.05061 0.04151,0.04282 0.04154,0.04281 0.04152,0.04284 0.04153,0.04281 0.0415,0.04152 0.04153,0.04281 0.04153,0.04284 0.04152,0.05061 0.04153,0.04282 0.04152,0.04283 0.04152,0.0428 0.04152,0.04154 0.04153,0.04281 0.04152,0.04283 0.04154,0.0506 0.04152,0.04282 0.04152,0.04283 0.04152,0.04281 0.04152,0.04152 0.04153,0.04282 0.04152,0.05062 0.04153,0.04282 0.04151,0.04282 0.04153,0.04283 0.04152,0.0506 0.04154,0.04282 0.04151,0.04281 0.04154,0.04154 0.0415,0.04281 0.04153,0.05191 0.04153,0.04152 0.04153,0.04282 0.04152,0.04283 0.04152,0.0506 0.04152,0.04283 0.04152,0.04282 0.04153,0.05061 0.04152,0.0428 0.04154,0.04283 0.04151,0.04154 0.04152,0.05189 0.04152,0.04154 0.04154,0.0428 0.04152,0.05192 0.04153,0.04151 0.04152,0.04283 0.04151,0.05061 0.04153,0.04282 0.04152,0.04283 0.04153,0.05059 0.04152,0.04282 0.04152,0.04282 0.04152,0.05061 0.04153,0.04282 0.04153,0.04283 0.04153,0.0506 0.04152,0.04283 0.04152,0.05061 0.04152,0.0428 0.04153,0.04284 0.04152,0.05059 0.04152,0.04283 0.04154,0.0506 0.0415,0.04283 0.04153,0.0506 0.04152,0.04283 0.04153,0.04282 0.04152,0.0506 0.04154,0.04283 0.0415,0.0506 0.04154,0.04283 0.04152,0.0506 0.04153,0.04283 0.04152,0.05189 0.04152,0.04154 0.04152,0.0519 0.04151,0.04151 0.04154,0.05191 0.04152,0.04284 0.04154,0.05061 0.04151,0.0428 0.04152,0.05061 0.04152,0.04282 0.04154,0.05061 0.04151,0.04282 0.04154,0.05061 0.04152,0.04282 0.04152,0.05061 0.04152,0.04282 0.04152,0.05061 0.04153,0.0519 0.04152,0.04152 0.04153,0.05192 0.04151,0.0428 0.04153,0.05062 0.04152,0.04281 0.04154,0.05061 0.04152,0.0506 0.04153,0.04283 0.0415,0.0519 0.04154,0.05061 0.04152,0.04282 0.04152,0.05061 0.04153,0.04282 0.04151,0.05061 0.04153,0.05062 0.04152,0.04281 0.04153,0.05189 0.04152,0.05062 0.04153,0.04283 0.04151,0.0506 0.04154,0.05061 0.04151,0.04282 0.04154,0.05062 0.04152,0.05189 0.04153,0.05061 0.04151,0.04282 0.04152,0.05061 0.04153,0.0506 0.04152,0.05191 0.04153,0.04282 0.04152,0.05061 0.04152,0.0506 0.04152,0.04283 0.04154,0.05061 0.04151,0.05189 0.04154,0.0506 0.04152,0.05062 0.04152,0.04283 0.04152,0.0506 0.04152,0.05189 0.04153,0.05062 0.04152,0.04283 0.04153,0.0506 0.04151,0.05191 0.04153,0.0506 0.04152,0.05061 0.04154,0.04281 0.04151,0.05062 0.04154,0.05189 0.0415,0.05062 0.04154,0.05059 0.04152,0.05191 0.04153,0.0506 0.04152,0.04283 0.04152,0.0506 0.04152,0.05062 0.04152,0.05189 0.04153,0.05061 0.04152,0.0506 0.04154,0.05193 0.04152,0.0506 0.04151,0.05061 0.04152,0.0519 0.04154,0.04283 0.04152,0.05059 0.04153,0.05062 0.04152,0.05189 0.0415,0.05062 0.04154,0.05059 0.04152,0.05062 0.04153,0.0519 0.04152,0.0506 0.04152,0.05062 0.04152,0.05191 0.04153,0.0506 0.04152,0.05061 0.04154,0.0519 0.04152,0.05061 0.04152,0.05061 0.04152,0.0519 0.04153,0.0506 0.04152,0.05061 0.04152,0.0519 0.04153,0.05061 0.04151,0.05062 0.04153,0.0519 0.04152,0.0506 0.04153,0.05061 0.04152,0.0519 0.04154,0.05061 0.0415,0.05062 0.04154,0.05189 0.04152,0.0506 0.04153,0.05971 0.04152,0.0506 0.04152,0.05191 0.04152,0.05059 0.04152,0.05062 0.04153,0.05189 0.04152,0.05062 0.04153,0.05059 0.04152,0.05193 0.04152,0.0506 0.04152,0.05969 0.04154,0.0506 0.04152,0.05191 0.04153,0.0506 0.04152,0.05061 0.04152,0.05191 0.04152,0.05839 0.04152,0.0519 0.04153,0.05061 0.04152,0.0506 0.04153,0.05191 0.04151,0.0506 0.04154,0.05971 0.04151,0.0506 0.04154,0.05189 0.04152,0.05062 0.04153,0.45936 0.0415,0.05968 0.04154,0.05969 0.04152,0.05969 0.04152,0.05838 0.04153,0.05193 0.04151,0.05968 0.04153,0.05969 0.04152,0.05839 0.04153,0.0597 0.04152,0.05969 0.04154,0.05968 0.0415,0.06877 0.04154,0.05839 0.04151,0.05971 0.04154,0.05968 0.04152,0.05969 0.04153,0.05969 0.0415,0.05969 0.04153,0.05968 0.04153,0.05971 0.04152,0.06746 0.04153,0.05971 0.04152,0.05967 0.04152,0.0597 0.04152,0.05969 0.04153,0.06747 0.04152,0.05969 0.04154,0.0597 0.04152,0.05967 0.04152,0.06749 0.04152,0.05968 0.04152,0.05971 0.04153,0.06747 0.04152,0.0597 0.04153,0.06877 0.04151,0.05969 0.04153,0.05839 0.04152,0.06878 0.04154,0.05967 0.04151,0.06749 0.04154,0.05968 0.0415,0.06877 0.04153,0.05971 0.04153,0.06746 0.04153,0.05971 0.04152,0.06746 0.04152,0.05969 0.04152,0.06878 0.04152,0.05838 0.04153,0.06878 0.04152,0.06748 0.04154,0.05968 0.04152,0.06877 0.04151,0.05971 0.04152,0.06746 0.04154,0.06749 0.04152,0.06877 0.04153,0.05968 0.04152,0.06749 0.04151,0.06877 0.04153,0.06747 0.04152,0.0597 0.04153,0.06747 0.04152,0.06877 0.04152,0.06748 0.04152,0.06877 0.04153,0.05969 0.04153,0.06747 0.04153,0.06748 0.04152,0.06879 0.04152,0.06747 0.04152,0.06877 0.04153,0.06748 0.04152,0.06876 0.04152,0.06748 0.04154,0.06877 0.0415,0.06749 0.04153,0.06876 0.04152,0.06749 0.04153,0.06747 0.04152,0.06877 0.04154,0.06748 0.0415,0.06877 0.04154,0.06747 0.04152,0.07657 0.04153,0.06878 0.04152,0.06747 0.04152,0.06747 0.04152,0.06877 0.04151,0.06748 0.04154,0.07657 0.04152,0.06877 0.04154,0.06747 0.04151,0.06877 0.04152,0.07657 0.04152,0.06746 0.04154,0.06877 0.04151,0.07657 0.04154,0.06748 0.04152,0.06747 0.04152,0.07657 0.04152,0.06877 0.04152,0.07655 0.04153,0.06749 0.04152,0.07656 0.04153,0.06877 0.04151,0.06747 0.04153,0.07657 0.04152,0.06877 0.04154,0.07656 0.04152,0.07655 0.04153,0.06749 0.0415,0.07655 0.04154,0.06877 0.04152,0.07656 0.04152,0.06747 0.04153,0.07657 0.04151,0.07655 0.04153,0.06748 0.04152,0.07655 0.04153,0.07657 0.04152,0.06879 0.04153,0.07655 0.04151,0.07655 0.04154,0.07656 0.04151,0.06749 0.04154,0.07655 0.04152,0.35684 0.04153,0.08565 0.04151,0.08564 0.04152,0.08434 0.04153,0.08565 0.04152,0.08433 0.04153,0.08564 0.04152,0.08436 0.04152,0.08563 0.04152,0.08565 0.04154,0.08434 0.04151,0.08565 0.04154,0.08435 0.04152,0.08564 0.04152,0.09343 0.04152,0.08434 0.04152,0.08565 0.04153,0.09341 0.04152,0.08565 0.04153,0.09343 0.04151,0.08435 0.04153,0.09343 0.04152,0.08564 0.04154,0.09342 0.04151,0.09343 0.04154,0.08564 0.0415,0.09344 0.04154,0.09341 0.04152,0.09343 0.04153,0.09344 0.04152,0.09343 0.04152,0.09343 0.04152,0.09342 0.04152,0.09474 0.04153,0.09341 0.04152,0.09343 0.04154,0.09343 0.04152,0.10251 0.04151,0.09343 0.04152,0.09343 0.04154,0.10122 0.04152,0.09342 0.04153,0.10251 0.04152,0.09343 0.0415,0.10251 0.04154,0.09344 0.04152,0.10249 0.04153,0.10123 0.04152,0.09471 0.04152,0.10123 0.04152,0.10251 0.04153,0.10251 0.04152,0.10123 0.04154,0.1025 0.04152,0.10122 0.04152,0.1025 0.04152,0.10253 0.04153,0.10119 0.04152,0.10253 0.04152,0.10251 0.04153,0.11029 0.04151,0.10251 0.04153,0.10122 0.04152,0.11029 0.04153,0.30625 0.04152,0.11158 0.04154,0.11939 0.0415,0.12717 0.04154,0.11938 0.04152,0.11807 0.04153,0.11937 0.04152,0.12848 0.04152,0.11807 0.04152,0.12848 0.04152,0.12715 0.04153,0.12717 0.04152,0.12847 0.04153,0.12716 0.04152,0.13625 0.04152,0.12716 0.04152,0.13627 0.04154,0.12716 0.04152,0.13625 0.04153,0.13624 0.04152,0.13627 0.04152,0.13623 0.04152,0.14404 0.04152,0.13626 0.04153,0.14532 0.04152,0.13495 0.04153,0.14533 0.04151,0.14404 0.04154,0.14533 0.04151,0.14404 0.04154,0.15312 0.04152,0.14532 0.04153,0.28809 0.0415,0.17128 0.04154,0.16998 0.04152,0.16999 0.04152,0.17908 0.04153,0.17777 0.04151,0.17907 0.04153,0.18686 0.04152,0.18685 0.04153,0.18686 0.04152,0.19594 0.04154,0.19594 0.0415,0.19594 0.04154,0.20372 0.04151,0.20373 0.04154,0.20502 0.04152,0.31403 0.04153,0.23875 0.0415,0.23746 0.04153,0.25564 0.04153,0.26342 0.04152,0.27249 0.04153,0.28029 0.04152,0.28158 0.04152,0.36592 0.04152,0.34777 0.04153,0.36592 0.04152,0.38281 0.04154,0.46843 0.04152,0.49309 0.04152,0.60339 0.04152,0.78247 L 85.04045,0"
       style="fill:none;stroke:#01528e;stroke-width:0.79701;stroke-linecap:round;stroke-linejoin:round;stroke-miterlimit:10;stroke-dasharray:none;stroke-opacity:1"
       transform="matrix(1.3333333,0,0,-1.3333333,64.252,177.63733)"
       clip-path="url(#clipPath58)" />
    <path
       id="path59"
       d="m 1.79329,85.04045 c 0,0.99043 -0.80287,1.79331 -1.79329,1.79331 -0.99042,0 -1.79329,-0.80288 -1.79329,-1.79331 0,-0.99042 0.80287,-1.7933 1.79329,-1.7933 0.99042,0 1.79329,0.80288 1.79329,1.7933 z"
       style="fill:#01528e;fill-opacity:1;fill-rule:nonzero;stroke:none"
       transform="matrix(1.3333333,0,0,-1.3333333,64.252,177.63733)"
       clip-path="url(#clipPath60)" />
    <path
       id="path61"
       d="m 44.31352,42.52022 c 0,0.99042 -0.80288,1.7933 -1.7933,1.7933 -0.99043,0 -1.79331,-0.80288 -1.79331,-1.7933 0,-0.99043 0.80288,-1.79331 1.79331,-1.79331 0.99042,0 1.7933,0.80288 1.7933,1.79331 z"
       style="fill:#01528e;fill-opacity:1;fill-rule:nonzero;stroke:none"
       transform="matrix(1.3333333,0,0,-1.3333333,64.252,177.63733)"
       clip-path="url(#clipPath62)" />
    <path
       id="path63"
       d="m 86.83376,0 c 0,0.99042 -0.80288,1.79329 -1.79331,1.79329 -0.99042,0 -1.7933,-0.80287 -1.7933,-1.79329 0,-0.99042 0.80288,-1.79329 1.7933,-1.79329 0.99043,0 1.79331,0.80287 1.79331,1.79329 z"
       style="fill:#01528e;fill-opacity:1;fill-rule:nonzero;stroke:none"
       transform="matrix(1.3333333,0,0,-1.3333333,64.252,177.63733)"
       clip-path="url(#clipPath64)" />
    <path
       id="path65"
       d="m 44.31352,60.13274 c 0,0.99043 -0.80288,1.7933 -1.7933,1.7933 -0.99043,0 -1.79331,-0.80287 -1.79331,-1.7933 0,-0.99042 0.80288,-1.79331 1.79331,-1.79331 0.99042,0 1.7933,0.80289 1.7933,1.79331 z"
       style="fill:#01528e;fill-opacity:1;fill-rule:nonzero;stroke:none"
       transform="matrix(1.3333333,0,0,-1.3333333,64.252,177.63733)"
       clip-path="url(#clipPath66)" />
    <path
       id="path67"
       d="m 1.6300391,-1.0558906 c -0.4335938,0.72656247 -0.83203129,0.74999997 -1.19531254,0.77343747 -0.0585938,0.0117188 -0.10546875,0.0820313 -0.10546875,0.1640625 0,0.05859375 0.0351563,0.1171875 0.12890625,0.1171875 0.17578125,0 0.59765624,-0.0234375 0.76171874,-0.0234375 0.1992188,0 0.6796875,0.0234375 0.8789063,0.0234375 0.058594,0 0.1757812,0 0.1757812,-0.1640625 0,-0.10546875 -0.1171875,-0.1171875 -0.140625,-0.1171875 -0.082031,0 -0.421875,-0.0234375 -0.421875,-0.29296875 0,-0.12890625 0.1054688,-0.29296875 0.1289063,-0.33984375 l 0.703125,-1.16015627 h 2.34375 c 0.023437,0.2109375 0.058594,0.515625 0.082031,0.7382813 0.035156,0.35156247 0.082031,0.74999997 0.082031,0.77343747 0,0.12890625 -0.1171875,0.28125 -0.6445313,0.28125 -0.082031,0 -0.1992187,0 -0.1992187,0.1640625 0,0.09375 0.070312,0.1171875 0.1289062,0.1171875 0.1757813,0 0.3867188,-0.0234375 0.5625,-0.0234375 0.1875,0 0.3984375,0 0.5390625,0 0.3046875,0 0.3164063,0 0.5273438,0 0.1523437,0.01171875 0.3515625,0.0234375 0.5039062,0.0234375 0.046875,0 0.1640625,0 0.1640625,-0.1640625 0,-0.1171875 -0.09375,-0.1171875 -0.1992187,-0.1171875 -0.5390625,0 -0.5507813,-0.0585938 -0.5742188,-0.31640625 L 5.2276953,-6.1769844 c -0.023437,-0.1992187 -0.023437,-0.2460937 -0.1757812,-0.2460937 -0.1289063,0 -0.1875,0.070312 -0.2578125,0.1875 z m 1.0898437,-1.2890625 1.8046875,-2.9648438 0.3398438,2.9648438 z m 0,0"
       style="fill:#01528e;fill-opacity:1;fill-rule:nonzero;stroke:none"
       aria-label="A"
       transform="matrix(1.3333333,0,0,1.3333333,71.213333,57.290667)"
       clip-path="url(#clipPath68)" />
    <path
       id="path69"
       d="m 1.4642266,-0.68002344 c -0.082031,0.31640625 -0.1054688,0.3984375 -0.77343754,0.3984375 -0.17578125,0 -0.26953125,0 -0.26953125,0.1640625 0,0.1171875025 0.09375,0.1171875025 0.24609375,0.1171875025 H 3.9368828 c 1.453125,0 2.5195313,-1.0546874625 2.5195313,-1.9218749625 0,-0.6445313 -0.5273438,-1.1835938 -1.4179688,-1.2773438 1.0195313,-0.1992187 1.8867188,-0.8789062 1.8867188,-1.6757812 0,-0.703125 -0.6445313,-1.2421875 -1.7109375,-1.2421875 H 2.1556328 c -0.1640625,0 -0.2695312,0 -0.2695312,0.1523437 0,0.1171875 0.082031,0.1171875 0.2695312,0.1171875 0.035156,0 0.1875,0 0.3398438,0.023437 0.1523437,0.011719 0.2109375,0.035156 0.2109375,0.1289063 0,0.046875 -0.011719,0.082031 -0.035156,0.1875 z M 2.8587578,-3.3050234 3.4095391,-5.4964297 c 0.082031,-0.3164062 0.09375,-0.3515625 0.46875,-0.3515625 h 1.21875 c 0.9257812,0 1.0078125,0.7148438 1.0078125,0.9375 0,0.796875 -0.8320313,1.6054688 -1.8515625,1.6054688 z m -0.4335937,3.02343746 c -0.1171875,0 -0.140625,0 -0.1757813,0 -0.09375,-0.0117188 -0.1171875,-0.0234375 -0.1171875,-0.0820313 0,-0.0351563 0,-0.046875 0.046875,-0.2109375 L 2.8001641,-3.0706484 h 1.6757812 c 0.5625,0 1.125,0.234375 1.125,1.0546875 0,0.890625 -0.8085937,1.73437496 -1.8867187,1.73437496 z m 0,0"
       style="fill:#01528e;fill-opacity:1;fill-rule:nonzero;stroke:none"
       aria-label="B"
       transform="matrix(1.3333333,0,0,1.3333333,104.09067,136.07467)"
       clip-path="url(#clipPath70)" />
    <path
       id="path71"
       d="m 6.9367422,-6.0821953 c 0.023437,-0.1054688 0.023437,-0.1171875 0.023437,-0.140625 0,-0.011719 0,-0.09375 -0.1054688,-0.09375 -0.046875,0 -0.082031,0.023437 -0.140625,0.09375 l -0.5507812,0.5976562 c -0.035156,0.046875 -0.070312,0.082031 -0.082031,0.082031 0,0 -0.011719,-0.011719 -0.070312,-0.070312 -0.1289062,-0.1757813 -0.5390625,-0.703125 -1.4648437,-0.703125 -2.0507813,0 -4.08984376,1.9921875 -4.08984376,4.03125 0,1.46484374 1.06640626,2.48437499 2.50781246,2.48437499 0.9375,0 1.6757813,-0.48046875 2.015625,-0.796875 0.8203125,-0.72656249 0.9726563,-1.52343749 0.9726563,-1.55859379 0,-0.035156 -0.023437,-0.09375 -0.1289063,-0.09375 -0.09375,0 -0.1171875,0.058594 -0.1171875,0.09375 -0.4453125,1.44140629 -1.7226562,2.07421879 -2.625,2.07421879 -0.8671875,0 -1.7929687,-0.52734375 -1.7929687,-1.88671879 0,-0.3984375 0.140625,-1.8164062 1.0429687,-2.9179687 0.5390625,-0.6445313 1.4179688,-1.1601563 2.2734375,-1.1601563 0.9960938,0 1.5234375,0.7617188 1.5234375,1.7578125 0,0.3046875 -0.023437,0.3632813 -0.023437,0.4335938 0,0.09375 0.1054688,0.09375 0.1289063,0.09375 0.1171875,0 0.1171875,-0.011719 0.1640625,-0.1875 z m 0,0"
       style="fill:#01528e;fill-opacity:1;fill-rule:nonzero;stroke:none"
       aria-label="C"
       transform="matrix(1.3333333,0,0,1.3333333,184.59867,170.676)"
       clip-path="url(#clipPath72)" />
    <path
       id="path73"
       d="m 1.4410937,-0.67863281 c -0.082031,0.31640625 -0.09375,0.3984375 -0.77343745,0.3984375 -0.1640625,0 -0.26953125,0 -0.26953125,0.1640625 0,0.1171875 0.09375,0.1171875 0.2578125,0.1171875 H 3.679375 c 1.9101562,0 3.703125,-1.89843749 3.703125,-3.83203129 0,-1.2304687 -0.7734375,-2.2851562 -2.1796875,-2.2851562 H 2.1325 c -0.1640625,0 -0.2695313,0 -0.2695313,0.1523437 0,0.1171875 0.082031,0.1171875 0.2695313,0.1171875 0.035156,0 0.1992187,0 0.3398437,0.023437 0.1523438,0.011719 0.2109375,0.035156 0.2109375,0.1289063 0,0.046875 0,0.082031 -0.035156,0.1875 z m 1.96875,-4.81640629 C 3.491875,-5.8114453 3.5153125,-5.8466016 3.8903125,-5.8466016 H 4.898125 c 0.9375,0 1.6875,0.5273438 1.6875,1.6757813 0,0.5273437 -0.234375,1.9570312 -0.9257813,2.8476562 -0.4101562,0.50390629 -1.1601562,1.04296879 -2.1445312,1.04296879 h -1.078125 c -0.1289063,0 -0.140625,0 -0.1757813,0 -0.09375,-0.0117188 -0.1171875,-0.0234375 -0.1171875,-0.0820313 0,-0.0351563 0,-0.046875 0.046875,-0.2109375 z m 0,0"
       style="fill:#01528e;fill-opacity:1;fill-rule:nonzero;stroke:none"
       aria-label="D"
       transform="matrix(1.3333333,0,0,1.3333333,127.90667,92.44)"
       clip-path="url(#clipPath74)" />
  </g>
</svg>
