<?xml version="1.0" encoding="UTF-8" standalone="no"?>
<!-- Created with Inkscape (http://www.inkscape.org/) -->

<svg
   version="1.1"
   id="svg1"
   width="394.39868"
   height="120.34"
   viewBox="0 0 394.39868 120.34"
   sodipodi:docname="torrehanoi.svg"
   inkscape:version="1.4.2 (ebf0e940, 2025-05-08)"
   xmlns:inkscape="http://www.inkscape.org/namespaces/inkscape"
   xmlns:sodipodi="http://sodipodi.sourceforge.net/DTD/sodipodi-0.dtd"
   xmlns="http://www.w3.org/2000/svg"
   xmlns:svg="http://www.w3.org/2000/svg">
  <defs
     id="defs1" />
  <sodipodi:namedview
     id="namedview1"
     pagecolor="#ffffff"
     bordercolor="#000000"
     borderopacity="0.25"
     inkscape:showpageshadow="2"
     inkscape:pageopacity="0.0"
     inkscape:pagecheckerboard="0"
     inkscape:deskcolor="#d1d1d1"
     inkscape:zoom="2.1095405"
     inkscape:cx="197.19934"
     inkscape:cy="59.965665"
     inkscape:window-width="976"
     inkscape:window-height="1186"
     inkscape:window-x="0"
     inkscape:window-y="30"
     inkscape:window-maximized="0"
     inkscape:current-layer="g1">
    <inkscape:page
       x="0"
       y="0"
       inkscape:label="1"
       id="page1"
       width="394.39868"
       height="120.34"
       margin="0"
       bleed="0" />
  </sodipodi:namedview>
  <g
     id="g1"
     inkscape:groupmode="layer"
     inkscape:label="1">
    <path
       id="path1"
       d="M -14.17339,1.99255 V 3.6767 c 0,1.10048 0.89208,1.99255 1.99256,1.99255 h 279.48295 c 1.10048,0 1.99256,-0.89207 1.99256,-1.99255 V 1.99255 C 269.29468,0.89207 268.4026,0 267.30212,0 H -12.18083 c -1.10048,0 -1.99256,0.89207 -1.99256,1.99255 z"
       style="fill:#cbcbcb;fill-opacity:1;fill-rule:nonzero;stroke:#505050;stroke-width:0.99628;stroke-linecap:butt;stroke-linejoin:miter;stroke-miterlimit:10;stroke-dasharray:none;stroke-opacity:1"
       transform="matrix(1.3333333,0,0,-1.3333333,27.121333,92.864)" />
    <path
       id="path2"
       d="m 39.68535,7.6618 v 54.12592 c 0,1.10046 0.89209,1.99255 1.99255,1.99255 h 1.6846 c 1.10047,0 1.99256,-0.89209 1.99256,-1.99255 V 7.6618 c 0,-1.10046 -0.89209,-1.99255 -1.99256,-1.99255 h -1.6846 c -1.10046,0 -1.99255,0.89209 -1.99255,1.99255 z"
       style="fill:#505050;fill-opacity:1;fill-rule:nonzero;stroke:#505050;stroke-width:0.3985;stroke-linecap:butt;stroke-linejoin:miter;stroke-miterlimit:10;stroke-dasharray:none;stroke-opacity:1"
       transform="matrix(1.3333333,0,0,-1.3333333,27.121333,92.864)" />
    <path
       id="path3"
       d="m 124.72578,7.6618 v 54.12592 c 0,1.10046 0.89208,1.99255 1.99256,1.99255 h 1.68458 c 1.10048,0 1.99256,-0.89209 1.99256,-1.99255 V 7.6618 c 0,-1.10046 -0.89208,-1.99255 -1.99256,-1.99255 h -1.68458 c -1.10048,0 -1.99256,0.89209 -1.99256,1.99255 z"
       style="fill:#505050;fill-opacity:1;fill-rule:nonzero;stroke:#505050;stroke-width:0.3985;stroke-linecap:butt;stroke-linejoin:miter;stroke-miterlimit:10;stroke-dasharray:none;stroke-opacity:1"
       transform="matrix(1.3333333,0,0,-1.3333333,27.121333,92.864)" />
    <path
       id="path4"
       d="m 209.7662,7.6618 v 54.12592 c 0,1.10046 0.8921,1.99255 1.99256,1.99255 h 1.6846 c 1.10046,0 1.99255,-0.89209 1.99255,-1.99255 V 7.6618 c 0,-1.10046 -0.89209,-1.99255 -1.99255,-1.99255 h -1.6846 c -1.10046,0 -1.99256,0.89209 -1.99256,1.99255 z"
       style="fill:#505050;fill-opacity:1;fill-rule:nonzero;stroke:#505050;stroke-width:0.3985;stroke-linecap:butt;stroke-linejoin:miter;stroke-miterlimit:10;stroke-dasharray:none;stroke-opacity:1"
       transform="matrix(1.3333333,0,0,-1.3333333,27.121333,92.864)" />
    <path
       id="path5"
       d="M 4.2531719,-5.8372656 C 4.1125469,-6.2239844 3.8547344,-6.2239844 3.6789531,-6.2239844 h -0.796875 c -0.1757812,0 -0.4335937,0 -0.5742187,0.3867188 l -1.88671878,5.41406248 c -0.046875,0.1171875 -0.046875,0.140625 -0.046875,0.17578125 0,0.24609375 0.22265625,0.24609375 0.3515625,0.24609375 H 1.0539531 c 0.1523438,0 0.4335938,0 0.5625,-0.36328125 L 1.9680156,-1.3607031 h 2.4726563 l 0.3046875,0.86718748 c 0.1171875,0.31640625 0.1757812,0.4921875 0.609375,0.4921875 h 0.4804687 c 0.1289063,0 0.3515625,0 0.3515625,-0.24609375 0,-0.0351563 0,-0.0585938 -0.046875,-0.17578125 z m -1.3710938,1.8164062 c 0.1289063,-0.3984375 0.2460938,-0.7382812 0.3164063,-1.0664062 h 0.011719 c 0.046875,0.2226562 0.046875,0.234375 0.1171875,0.4453125 l 0.84375,2.5195312 H 2.2258281 Z m 0,0"
       style="fill:#000000;fill-opacity:1;fill-rule:nonzero;stroke:none"
       aria-label="A"
       transform="matrix(1.3333333,0,0,1.3333333,79.430667,108.35333)" />
    <path
       id="path6"
       d="m 1.2424922,-6.2239844 c -0.31640626,0 -0.42187501,0.1054688 -0.42187501,0.4335938 v 5.35546873 c 0,0.328125 0.09375,0.43359375 0.42187501,0.43359375 h 2.4609375 c 0.6679687,0 2.3085937,-0.1171875 2.3085937,-1.73437498 0,-1.265625 -1.2421875,-1.4648438 -1.5703125,-1.5234375 0.8203125,-0.1875 1.3007813,-0.65625 1.3007813,-1.3476563 0,-1.6171875 -1.9101563,-1.6171875 -2.2851563,-1.6171875 z m 0.8320312,2.6601563 v -1.8867188 h 1.0546875 c 0.3515625,0 1.3945313,0.023437 1.3945313,0.8671875 0,1.0195313 -1.1835938,1.0195313 -1.40625,1.0195313 z m 0,2.78906248 V -2.9192969 h 1.1367188 c 0.3164062,0 1.5585937,0 1.5585937,1.1601563 0,0.92578123 -0.9609375,0.98437498 -1.3945312,0.98437498 z m 0,0"
       style="fill:#000000;fill-opacity:1;fill-rule:nonzero;stroke:none"
       aria-label="B"
       transform="matrix(1.3333333,0,0,1.3333333,192.816,108.35333)" />
    <path
       id="path7"
       d="m 5.7412969,-1.2786719 c 0,-0.082031 -0.070312,-0.1171875 -0.1054688,-0.1171875 -0.2109375,0 -0.46875,0.58593753 -1.734375,0.58593753 -1.5820312,0 -2.0273437,-0.96093753 -2.0273437,-2.30859373 0,-1.3359375 0.4804687,-2.3085938 1.9570312,-2.3085938 0.796875,0 1.21875,0.3164063 1.453125,0.515625 0.058594,0.046875 0.082031,0.082031 0.1523438,0.082031 0.035156,0 0.070312,-0.046875 0.082031,-0.082031 l 0.1875,-0.9960937 c 0,-0.035156 0,-0.070312 -0.082031,-0.1054688 -0.5273438,-0.1875 -1.0664063,-0.3164062 -1.7695313,-0.3164062 -2.1914062,0 -3.30468747,1.0664062 -3.30468747,3.1992187 0,2.19140628 1.13671877,3.22265628 3.31640627,3.22265628 0.7617187,0 1.2304687,-0.1171875 1.8867187,-0.515625 0.070312,-0.046875 0.058594,-0.10546875 0.058594,-0.10546875 z m 0,0"
       style="fill:#000000;fill-opacity:1;fill-rule:nonzero;stroke:none"
       aria-label="C"
       transform="matrix(1.3333333,0,0,1.3333333,306.384,108.35333)" />
    <path
       id="path8"
       d="m 11.33855,8.65808 v 3.94389 c 0,1.65072 1.33812,2.98883 2.98883,2.98883 h 56.38565 c 1.65071,0 2.98883,-1.33811 2.98883,-2.98883 V 8.65808 c 0,-1.65071 -1.33812,-2.98883 -2.98883,-2.98883 H 14.32738 c -1.65071,0 -2.98883,1.33812 -2.98883,2.98883 z"
       style="fill:#42a5f5;fill-opacity:1;fill-rule:nonzero;stroke:#4c4c4c;stroke-width:0.3985;stroke-linecap:butt;stroke-linejoin:miter;stroke-miterlimit:10;stroke-dasharray:none;stroke-opacity:1"
       transform="matrix(1.3333333,0,0,-1.3333333,27.121333,92.864)" />
    <path
       id="path9"
       d="m 19.84267,18.57964 v 3.94368 c 0,1.65071 1.33812,2.98883 2.98883,2.98883 h 39.37741 c 1.65071,0 2.98883,-1.33812 2.98883,-2.98883 v -3.94368 c 0,-1.65072 -1.33812,-2.98884 -2.98883,-2.98884 H 22.8315 c -1.65071,0 -2.98883,1.33812 -2.98883,2.98884 z"
       style="fill:#15b6b8;fill-opacity:1;fill-rule:nonzero;stroke:#4c4c4c;stroke-width:0.3985;stroke-linecap:butt;stroke-linejoin:miter;stroke-miterlimit:10;stroke-dasharray:none;stroke-opacity:1"
       transform="matrix(1.3333333,0,0,-1.3333333,27.121333,92.864)" />
    <path
       id="path10"
       d="m 28.3468,28.50098 v 3.94366 c 0,1.65071 1.33812,2.98883 2.98883,2.98883 h 22.36916 c 1.65069,0 2.98883,-1.33812 2.98883,-2.98883 v -3.94366 c 0,-1.6507 -1.33814,-2.98883 -2.98883,-2.98883 H 31.33563 c -1.65071,0 -2.98883,1.33813 -2.98883,2.98883 z"
       style="fill:#01528e;fill-opacity:1;fill-rule:nonzero;stroke:#4c4c4c;stroke-width:0.3985;stroke-linecap:butt;stroke-linejoin:miter;stroke-miterlimit:10;stroke-dasharray:none;stroke-opacity:1"
       transform="matrix(1.3333333,0,0,-1.3333333,27.121333,92.864)" />
  </g>
</svg>
